<svg width="103" height="253" viewBox="0 0 103 253" fill="none" xmlns="http://www.w3.org/2000/svg">
<path d="M3.91418 202.595C3.91418 202.595 21.9142 172.945 25.6442 163.665C29.3742 154.385 32.1442 149.755 36.7742 138.005C41.4042 126.255 48.5242 117.595 52.5442 115.745C56.5642 113.895 61.2042 111.415 59.9642 115.125C58.7242 118.835 54.7142 121.925 53.4742 123.475C52.2342 125.025 61.1042 139.055 60.2242 143.165C59.3442 147.275 58.4242 152.845 52.8542 158.105C49.3065 161.428 45.479 164.439 41.4142 167.105L12.5942 251.995" fill="white"/>
<path d="M12.5941 252.475C12.5413 252.486 12.4869 252.486 12.4341 252.475C12.3706 252.455 12.3118 252.422 12.2612 252.379C12.2106 252.335 12.1691 252.282 12.1393 252.223C12.1095 252.163 12.0919 252.098 12.0876 252.032C12.0833 251.965 12.0923 251.898 12.1141 251.835L40.9441 166.935C40.9774 166.827 41.0484 166.735 41.1441 166.675C45.1767 164.032 48.9801 161.055 52.5141 157.775C57.6741 152.895 58.7441 147.775 59.6041 143.775L59.7341 143.125C60.1841 141.045 57.7341 135.765 55.7341 131.515C53.2541 126.185 52.3841 124.085 53.0741 123.225C53.5473 122.674 54.0479 122.146 54.5741 121.645C56.2741 119.955 58.5741 117.645 59.4841 115.025C59.7241 114.305 59.6841 113.945 59.5741 113.845C58.9941 113.335 55.8741 114.795 53.8141 115.755L52.7441 116.255C48.6341 118.155 41.7441 126.895 37.2341 138.255C34.7241 144.615 32.7741 148.845 30.8941 152.945C29.3041 156.405 27.8041 159.665 26.1041 163.945C22.4141 173.155 4.51413 202.645 4.33413 202.945C4.26383 203.058 4.15244 203.139 4.02361 203.17C3.89478 203.202 3.75866 203.182 3.64413 203.115C3.58823 203.081 3.53974 203.035 3.50143 202.982C3.46312 202.928 3.43575 202.868 3.42088 202.804C3.40602 202.739 3.40395 202.673 3.41481 202.608C3.42566 202.543 3.44922 202.481 3.48413 202.425C3.66413 202.125 21.4841 172.705 25.1741 163.575C26.8841 159.295 28.3941 156.015 29.9841 152.575C31.8641 148.495 33.8041 144.275 36.3041 137.945C40.8741 126.355 48.0441 117.385 52.3041 115.405L53.3741 114.915C56.9641 113.235 59.2241 112.275 60.2241 113.165C60.9441 113.805 60.5441 115.005 60.4141 115.405C59.4141 118.245 57.0341 120.655 55.2541 122.405C54.6541 122.995 54.1441 123.515 53.8341 123.895C53.5441 124.525 55.3241 128.355 56.6241 131.145C58.8741 135.985 61.1941 140.985 60.6841 143.385L60.5441 144.025C59.7141 148.025 58.5441 153.485 53.1641 158.575C49.6358 161.867 45.8356 164.854 41.8041 167.505L13.0341 252.245C12.9865 252.318 12.921 252.377 12.844 252.417C12.767 252.458 12.681 252.478 12.5941 252.475Z" fill="#263238"/>
<path d="M48.5241 192.765H53.8041L53.8041 72.3254H48.5241L48.5241 192.765Z" fill="#263238"/>
<path d="M53.8042 193.265H48.5242C48.3916 193.265 48.2644 193.213 48.1706 193.119C48.0768 193.025 48.0242 192.898 48.0242 192.765V72.3254C48.0267 72.1936 48.0802 72.0679 48.1734 71.9747C48.2667 71.8815 48.3924 71.828 48.5242 71.8254H53.8042C53.9368 71.8254 54.0639 71.8781 54.1577 71.9719C54.2515 72.0656 54.3042 72.1928 54.3042 72.3254V192.765C54.3042 192.898 54.2515 193.025 54.1577 193.119C54.0639 193.213 53.9368 193.265 53.8042 193.265ZM49.0242 192.265H53.3042V72.8254H49.0242V192.265Z" fill="#263238"/>
<path d="M77.0251 77.0252C91.2051 62.8452 91.2051 39.855 77.0252 25.6751C62.8452 11.4951 39.855 11.4951 25.675 25.6751C11.4951 39.855 11.4951 62.8452 25.6751 77.0252C39.855 91.2051 62.8452 91.2051 77.0251 77.0252Z" fill="white"/>
<path d="M51.3542 89.1654C43.8741 89.1654 36.562 86.9473 30.3425 82.7916C24.1231 78.6359 19.2756 72.7292 16.4131 65.8185C13.5506 58.9078 12.8016 51.3035 14.2609 43.9671C15.7202 36.6307 19.3222 29.8919 24.6114 24.6026C29.9006 19.3134 36.6395 15.7114 43.9759 14.2521C51.3122 12.7928 58.9166 13.5418 65.8273 16.4043C72.738 19.2668 78.6447 24.1143 82.8004 30.3337C86.9561 36.5532 89.1742 43.8653 89.1742 51.3454C89.1636 61.3727 85.1756 70.9862 78.0853 78.0765C70.9949 85.1668 61.3814 89.1548 51.3542 89.1654ZM51.3542 16.5354C44.467 16.5354 37.7345 18.5778 32.0082 22.4043C26.2819 26.2308 21.8189 31.6696 19.1838 38.0327C16.5486 44.3958 15.8596 51.3974 17.204 58.1521C18.5483 64.9068 21.8656 71.1111 26.7363 75.9804C31.6069 80.8497 37.8122 84.1652 44.5673 85.5076C51.3224 86.85 58.3238 86.159 64.6862 83.522C71.0485 80.885 76.486 76.4205 80.3108 70.6931C84.1357 64.9657 86.1762 58.2326 86.1742 51.3454C86.1636 42.1147 82.4914 33.2653 75.9634 26.7392C69.4353 20.2131 60.5849 16.5433 51.3542 16.5354Z" fill="#263238"/>
<path d="M71.8441 42.9253H57.9441C58.8191 39.722 59.4212 36.4503 59.7441 33.1453C60.2541 27.7453 58.4541 26.9753 54.3341 26.9753C50.2141 26.9753 54.3341 30.5753 52.3341 34.9753C50.6841 38.4753 45.7441 41.9754 43.8341 43.2354V67.4053H64.3741C71.3741 66.4053 66.9541 61.4854 66.9541 61.4854C72.0941 60.4854 69.0041 55.3154 69.0041 55.3154C74.1541 54.5354 70.5541 49.6453 70.5541 49.6453C75.9541 47.0453 71.8441 42.9253 71.8441 42.9253Z" fill="#1877F2"/>
<path d="M43.7842 67.8753C43.6516 67.8753 43.5244 67.8226 43.4306 67.7288C43.3369 67.635 43.2842 67.5079 43.2842 67.3753V43.2053C43.2861 43.1219 43.3079 43.0403 43.348 42.9672C43.388 42.8941 43.445 42.8317 43.5142 42.7852C45.5142 41.4852 50.2442 38.0952 51.8242 34.7852C52.4708 33.2244 52.5729 31.4913 52.1142 29.8652C51.9142 28.7752 51.7442 27.8652 52.2842 27.1952C52.5486 26.9446 52.8646 26.7547 53.2101 26.639C53.5555 26.5233 53.9221 26.4844 54.2842 26.5253C56.5142 26.5253 58.2042 26.7452 59.2142 27.8652C60.2242 28.9852 60.4442 30.5453 60.2142 33.2453C59.9068 36.3604 59.3551 39.4465 58.5642 42.4752H71.8142C71.9458 42.4782 72.0713 42.5319 72.1642 42.6253C72.2442 42.7053 74.1642 44.6253 73.7642 46.8253C73.6002 47.4841 73.288 48.0969 72.8512 48.6168C72.4145 49.1367 71.8649 49.55 71.2442 49.8253C71.7642 50.6753 72.6442 52.4652 72.0442 53.9252C71.826 54.3795 71.5009 54.7742 71.0969 55.0755C70.6929 55.3768 70.2219 55.5757 69.7242 55.6553C70.0663 56.2921 70.2763 56.9915 70.3416 57.7115C70.4069 58.4315 70.3261 59.1572 70.1042 59.8453C69.8802 60.3165 69.5554 60.7327 69.1528 61.0645C68.7502 61.3963 68.2795 61.6355 67.7742 61.7653C68.1833 62.2753 68.4722 62.8711 68.6194 63.5082C68.7666 64.1453 68.7682 64.8074 68.6242 65.4452C68.1642 66.7152 66.7442 67.5353 64.4142 67.8853L43.7842 67.8753ZM44.2842 66.8753H64.3742C65.6342 66.6853 67.3042 66.2153 67.7142 65.0953C68.2242 63.6653 66.5942 61.8153 66.5742 61.7953C66.515 61.7301 66.4746 61.6502 66.457 61.564C66.4394 61.4778 66.4453 61.3884 66.4742 61.3052C66.503 61.2207 66.5531 61.145 66.6196 61.0855C66.6862 61.0259 66.767 60.9845 66.8542 60.9653C67.3444 60.9241 67.8169 60.763 68.2302 60.4962C68.6435 60.2294 68.9849 59.865 69.2242 59.4353C69.9342 57.8353 68.5942 55.5652 68.5842 55.5352C68.5448 55.4632 68.5242 55.3824 68.5242 55.3002C68.5242 55.2181 68.5448 55.1373 68.5842 55.0653C68.6209 54.9919 68.6745 54.9283 68.7406 54.8797C68.8066 54.831 68.8832 54.7986 68.9642 54.7852C70.1642 54.6052 70.9042 54.1852 71.1842 53.5252C71.6742 52.3552 70.6242 50.5252 70.1842 49.9152C70.1401 49.8557 70.1093 49.7874 70.0938 49.715C70.0783 49.6425 70.0784 49.5676 70.0942 49.4953C70.115 49.425 70.1495 49.3597 70.1959 49.303C70.2423 49.2464 70.2995 49.1995 70.3642 49.1652C71.8342 48.4752 72.6642 47.6053 72.8342 46.6053C72.864 46.0228 72.7747 45.4404 72.5718 44.8937C72.3689 44.3469 72.0567 43.8473 71.6542 43.4252H57.9442C57.8663 43.4269 57.7892 43.4095 57.7195 43.3747C57.6498 43.3398 57.5896 43.2885 57.5442 43.2252C57.4945 43.1648 57.4611 43.0926 57.4471 43.0156C57.4331 42.9386 57.439 42.8593 57.4642 42.7852C58.3307 39.6115 58.9262 36.3698 59.2442 33.0953C59.4742 30.7453 59.2442 29.2753 58.5242 28.4953C57.8042 27.7153 56.2942 27.4953 54.3342 27.4953C53.6642 27.4953 53.2142 27.5953 53.0542 27.7953C52.8942 27.9953 52.9442 28.7952 53.1042 29.6452C53.5998 31.4817 53.4696 33.431 52.7342 35.1853C51.1042 38.6453 46.4442 42.0453 44.2842 43.4953V66.8753Z" fill="#263238"/>
<path d="M40.9541 43.1853H29.3741V66.6053H40.9541V43.1853Z" fill="#1877F2"/>
<path d="M40.9541 67.1053H29.3741C29.2415 67.1053 29.1144 67.0526 29.0206 66.9588C28.9268 66.8651 28.8741 66.7379 28.8741 66.6053V43.1853C28.8741 43.0527 28.9268 42.9255 29.0206 42.8317C29.1144 42.738 29.2415 42.6853 29.3741 42.6853H40.9541C41.0868 42.6853 41.2139 42.738 41.3077 42.8317C41.4015 42.9255 41.4541 43.0527 41.4541 43.1853V66.6053C41.4541 66.7379 41.4015 66.8651 41.3077 66.9588C41.2139 67.0526 41.0868 67.1053 40.9541 67.1053ZM29.8741 66.1053H40.4541V43.6853H29.8741V66.1053Z" fill="#263238"/>
<path d="M37.3941 155.625C37.3941 155.625 45.7441 146.975 46.3941 142.025C46.8412 137.918 47.0482 133.787 47.0141 129.655C47.0141 127.805 49.4841 115.435 49.4841 111.105C49.4841 106.775 45.1541 101.825 44.2241 103.995C43.2941 106.165 44.2241 115.435 40.8241 120.385C37.4241 125.335 33.0941 136.765 32.1741 142.335C31.5621 146.843 31.2514 151.386 31.2441 155.935" fill="white"/>
<path d="M31.2141 156.435C31.0815 156.435 30.9543 156.383 30.8606 156.289C30.7668 156.195 30.7141 156.068 30.7141 155.935C30.7234 151.36 31.034 146.79 31.6441 142.255C32.5641 136.755 36.8641 125.255 40.3841 120.095C42.5641 116.925 42.9041 111.825 43.1541 108.095C43.1658 106.64 43.3607 105.192 43.7341 103.785C43.8428 103.494 44.0544 103.253 44.329 103.107C44.6036 102.962 44.9221 102.922 45.2241 102.995C47.2241 103.395 49.9541 107.555 49.9541 111.095C49.9541 113.755 49.0541 119.285 48.3341 123.735C47.8741 126.535 47.4841 128.955 47.4841 129.645C47.518 133.797 47.3076 137.948 46.8541 142.075C46.2241 147.135 38.1041 155.605 37.7541 155.965C37.7076 156.012 37.6523 156.049 37.5914 156.075C37.5305 156.1 37.4651 156.113 37.3991 156.113C37.3331 156.113 37.2678 156.1 37.2068 156.075C37.1459 156.049 37.0906 156.012 37.0441 155.965C36.9519 155.87 36.9003 155.743 36.9003 155.61C36.9003 155.478 36.9519 155.35 37.0441 155.255C37.1241 155.165 45.2841 146.655 45.8741 141.935C46.3208 137.847 46.5279 133.737 46.4941 129.625C46.4941 128.855 46.8741 126.515 47.3541 123.555C48.1314 119.43 48.669 115.263 48.9641 111.075C48.9641 107.745 46.2941 104.205 45.0341 103.955C44.8641 103.955 44.7641 103.955 44.6641 104.165C44.3449 105.475 44.1771 106.817 44.1641 108.165C43.9041 112.005 43.5541 117.255 41.2141 120.655C37.7641 125.655 33.5441 137.005 32.6441 142.405C32.0402 146.887 31.7329 151.403 31.7241 155.925C31.7255 155.993 31.7132 156.059 31.6881 156.122C31.6629 156.184 31.6254 156.241 31.5778 156.289C31.5301 156.337 31.4734 156.374 31.4109 156.399C31.3484 156.424 31.2815 156.437 31.2141 156.435Z" fill="#263238"/>
<path d="M50.3841 114.505C50.3841 114.505 58.7341 107.705 60.5841 110.795C62.4341 113.885 61.5141 116.675 58.7341 117.595C55.9541 118.515 51.0041 121.595 50.0741 118.525C49.1441 115.455 50.3841 114.505 50.3841 114.505Z" fill="white"/>
<path d="M51.9742 120.365C51.5645 120.376 51.1577 120.294 50.7842 120.125C50.4909 119.984 50.2323 119.78 50.0267 119.528C49.821 119.275 49.6733 118.981 49.5942 118.665C48.5942 115.405 49.8742 114.265 50.0742 114.115C50.7442 113.565 56.4742 108.995 59.5142 109.535C59.8232 109.579 60.1185 109.691 60.3781 109.864C60.6378 110.037 60.8552 110.267 61.0142 110.535C61.5014 111.242 61.8236 112.049 61.9568 112.898C62.0901 113.746 62.0311 114.613 61.7842 115.435C61.532 116.066 61.14 116.631 60.6376 117.089C60.1353 117.546 59.5358 117.883 58.8842 118.075C58.3042 118.265 57.6142 118.565 56.8842 118.885C55.3503 119.671 53.6868 120.172 51.9742 120.365ZM50.6742 114.895C50.6742 114.895 49.7442 115.775 50.5342 118.385C50.5742 118.564 50.6532 118.733 50.7655 118.878C50.8778 119.023 51.0208 119.142 51.1842 119.225C52.3042 119.745 54.6142 118.755 56.4642 117.965C57.2142 117.635 57.9242 117.335 58.5542 117.125C59.0603 116.988 59.5281 116.736 59.9216 116.389C60.3151 116.042 60.6239 115.61 60.8242 115.125C61.0139 114.449 61.0505 113.739 60.9311 113.047C60.8117 112.355 60.5395 111.699 60.1342 111.125C60.0496 110.979 59.9326 110.854 59.7922 110.761C59.6517 110.667 59.4915 110.607 59.3242 110.585C57.1142 110.205 52.3242 113.585 50.6742 114.965V114.895Z" fill="#263238"/>
<path d="M50.6742 125.995C50.6742 125.995 59.3242 117.995 60.8742 120.745C62.4242 123.495 62.7342 126.615 59.9442 128.475C57.1542 130.335 50.0542 135.275 48.5042 132.475C46.9542 129.675 50.6742 125.995 50.6742 125.995Z" fill="white"/>
<path d="M50.1442 133.765C49.9056 133.768 49.6675 133.745 49.4341 133.695C49.1519 133.635 48.8859 133.515 48.6546 133.342C48.4233 133.169 48.2321 132.949 48.0942 132.695C46.3842 129.615 50.1742 125.765 50.3342 125.605C51.0342 124.945 57.3342 119.205 60.1242 119.655C60.3725 119.686 60.6099 119.776 60.8168 119.917C61.0237 120.058 61.1941 120.246 61.3142 120.465C63.3142 124.025 62.8942 127.075 60.2242 128.855L59.8142 129.135C57.3442 130.785 52.8842 133.765 50.1442 133.765ZM51.0342 126.305C50.8842 126.465 47.6441 129.825 48.9641 132.195C49.035 132.33 49.1358 132.447 49.2589 132.538C49.3819 132.628 49.524 132.688 49.6742 132.715C51.8642 133.245 57.0542 129.715 59.2742 128.285L59.6742 127.995C62.6742 125.995 61.4341 122.715 60.4341 120.925C60.3893 120.838 60.324 120.764 60.2438 120.708C60.1636 120.652 60.0711 120.617 59.9742 120.605C58.2342 120.355 53.5742 123.995 51.0342 126.305Z" fill="#263238"/>
<path d="M51.3142 133.995C51.3142 133.995 59.9642 125.995 61.5142 128.735C63.0642 131.475 63.3642 134.615 60.5842 136.465C57.8042 138.315 50.6942 143.275 49.1442 140.465C47.5942 137.655 51.3142 133.995 51.3142 133.995Z" fill="white"/>
<path d="M50.7541 141.805C50.5189 141.808 50.2841 141.785 50.0541 141.735C49.7715 141.673 49.5051 141.551 49.2725 141.379C49.0399 141.207 48.8462 140.987 48.7041 140.735C46.9941 137.655 50.7941 133.805 50.9541 133.645C51.6641 132.995 57.9541 127.265 60.7541 127.705C61.0024 127.736 61.2398 127.826 61.4467 127.967C61.6536 128.108 61.8241 128.296 61.9441 128.515C63.9441 132.075 63.5141 135.125 60.8541 136.905L60.4441 137.185C57.9541 138.825 53.4941 141.805 50.7541 141.805ZM51.6541 134.345C51.5041 134.505 48.2641 137.865 49.5841 140.235C49.655 140.37 49.7558 140.487 49.8788 140.578C50.0019 140.668 50.1439 140.728 50.2941 140.755C52.4741 141.285 57.6741 137.805 59.8941 136.325L60.3041 136.045C63.3041 134.045 62.0641 130.755 61.0741 128.975C61.0307 128.887 60.9658 128.812 60.8853 128.756C60.8049 128.7 60.7116 128.665 60.6141 128.655C58.8641 128.405 54.1941 131.995 51.6741 134.345H51.6541Z" fill="#263238"/>
<path d="M53.4741 141.365C53.4741 141.365 59.7741 135.505 60.9041 137.535C62.0341 139.565 62.2541 141.815 60.2241 143.165C58.1941 144.515 53.0241 148.165 51.8941 146.095C50.7641 144.025 53.4741 141.365 53.4741 141.365Z" fill="white"/>
<path d="M53.0642 147.195C52.8825 147.196 52.7013 147.176 52.5242 147.135C52.2992 147.086 52.0874 146.989 51.9029 146.851C51.7184 146.713 51.5654 146.537 51.4542 146.335C50.1642 144.005 52.9942 141.135 53.1142 141.015C53.9542 140.235 58.3042 136.315 60.3642 136.655C60.5721 136.675 60.7719 136.746 60.9462 136.861C61.1205 136.976 61.264 137.132 61.3642 137.315C62.8142 139.935 62.5042 142.315 60.5242 143.605L60.2242 143.805C58.3742 144.995 55.1042 147.195 53.0642 147.195ZM53.8142 141.725C53.6842 141.855 51.4242 144.225 52.3342 145.855C52.3767 145.937 52.4378 146.008 52.5124 146.061C52.5871 146.115 52.6733 146.151 52.7642 146.165C54.2942 146.535 58.0442 144.025 59.6542 142.955L59.9542 142.755C62.0342 141.365 61.1642 139.045 60.4642 137.755C60.443 137.708 60.4096 137.668 60.3674 137.638C60.3252 137.608 60.2757 137.59 60.2242 137.585C58.9742 137.425 55.6742 139.995 53.8142 141.725Z" fill="#263238"/>
</svg>
