<svg width="108" height="202" viewBox="0 0 108 202" fill="none" xmlns="http://www.w3.org/2000/svg">
<path d="M79.7699 201.01H106.77V193.7C97.4899 177.08 76.2399 138.75 73.3599 131.53C69.6499 122.26 66.8599 117.62 62.2299 105.87C57.5999 94.12 50.4799 85.46 46.4599 83.61C42.4399 81.76 37.7999 79.28 39.0399 82.99C40.2799 86.7 44.2899 89.79 45.5299 91.34C46.7699 92.89 37.8999 106.92 38.7799 111.03C39.6599 115.14 40.5799 120.71 46.1499 125.97C49.6976 129.293 53.5251 132.304 57.5899 134.97L79.7699 201.01Z" fill="white"/>
<path d="M106.74 201.51H79.7399C79.6363 201.508 79.5358 201.474 79.4519 201.413C79.3679 201.353 79.3044 201.268 79.2699 201.17L57.1099 135.27C53.079 132.614 49.2759 129.627 45.7399 126.34C40.3499 121.25 39.1999 115.78 38.3599 111.79L38.2299 111.15C37.7099 108.74 40.0399 103.74 42.2899 98.91C43.5899 96.12 45.3699 92.29 45.0699 91.65C44.7699 91.28 44.2499 90.76 43.6599 90.17C41.8799 88.41 39.4499 86 38.4999 83.17C38.3699 82.77 37.9699 81.57 38.6899 80.93C39.6899 80.04 41.9499 80.99 45.5399 82.68L46.6099 83.17C50.8899 85.17 58.0599 94.17 62.6099 105.71C65.1099 112.04 67.0499 116.26 68.9299 120.34C70.5199 123.81 72.0299 127.09 73.7399 131.34C76.6199 138.54 98.0499 177.17 107.12 193.45C107.167 193.521 107.192 193.605 107.19 193.69V200.99C107.196 201.118 107.152 201.243 107.069 201.34C106.985 201.436 106.867 201.497 106.74 201.51ZM80.1299 200.51H106.24V193.84C97.1099 177.48 75.7599 138.96 72.8599 131.73C71.1599 127.47 69.6599 124.21 68.0699 120.73C66.1899 116.63 64.2399 112.4 61.7299 106.04C57.2499 94.69 50.3199 85.95 46.2199 84.04L45.1499 83.54C43.0899 82.54 39.9699 81.12 39.3899 81.63C39.2799 81.73 39.2399 82.09 39.4799 82.81C40.3499 85.43 42.6899 87.74 44.3899 89.43C45.0099 90.05 45.5399 90.58 45.8899 91.01C46.5799 91.87 45.7099 94.01 43.2299 99.3C41.2299 103.55 38.7899 108.83 39.2299 110.91L39.3699 111.56C40.2299 115.63 41.2999 120.71 46.4599 125.56C49.9916 128.838 53.7916 131.816 57.8199 134.46C57.9161 134.522 57.9898 134.613 58.0299 134.72L80.1299 200.51Z" fill="#263238"/>
<path d="M50.45 40.2H45.17V160.64H50.45V40.2Z" fill="#263238"/>
<path d="M50.45 161.14H45.17C45.0374 161.14 44.9103 161.087 44.8165 160.993C44.7227 160.9 44.67 160.773 44.67 160.64V40.2C44.67 40.0673 44.7227 39.9402 44.8165 39.8464C44.9103 39.7526 45.0374 39.7 45.17 39.7H50.45C50.5818 39.7025 50.7075 39.756 50.8008 39.8492C50.894 39.9424 50.9475 40.0681 50.95 40.2V160.64C50.95 160.773 50.8974 160.9 50.8036 160.993C50.7098 161.087 50.5827 161.14 50.45 161.14ZM45.67 160.14H49.95V40.7H45.65L45.67 160.14Z" fill="#263238"/>
<path d="M87.25 1.5H9.17C4.93397 1.5 1.5 4.93397 1.5 9.17V34.53C1.5 38.766 4.93397 42.2 9.17 42.2H87.25C91.486 42.2 94.92 38.766 94.92 34.53V9.17C94.92 4.93397 91.486 1.5 87.25 1.5Z" fill="white"/>
<path d="M87.25 43.7H9.17C6.73878 43.6973 4.40789 42.7304 2.68875 41.0112C0.969616 39.2921 0.00264695 36.9612 0 34.53V9.17C0.00264695 6.73878 0.969616 4.40789 2.68875 2.68875C4.40789 0.969616 6.73878 0.00264695 9.17 0H87.25C89.6812 0.00264695 92.0121 0.969616 93.7312 2.68875C95.4504 4.40789 96.4173 6.73878 96.42 9.17V34.54C96.4147 36.9695 95.4466 39.2978 93.7277 41.0148C92.0089 42.7318 89.6795 43.6974 87.25 43.7ZM9.17 3C7.53442 3.00264 5.96659 3.65355 4.81006 4.81007C3.65353 5.9666 3.00264 7.53442 3 9.17V34.54C3.00264 36.1756 3.65353 37.7434 4.81006 38.8999C5.96659 40.0564 7.53442 40.7073 9.17 40.71H87.25C88.8856 40.7073 90.4534 40.0564 91.6099 38.8999C92.7664 37.7434 93.4173 36.1756 93.42 34.54V9.17C93.4173 7.53442 92.7664 5.9666 91.6099 4.81007C90.4534 3.65355 88.8856 3.00264 87.25 3H9.17Z" fill="#263238"/>
<path d="M13.62 13.1099L15.48 18.8499H21.51L16.63 22.3999L18.49 28.1399L13.62 24.5899L8.73996 28.1399L10.6 22.3999L5.71997 18.8499H11.75L13.62 13.1099Z" fill="#F6FB18"/>
<path d="M8.73 28.63C8.62653 28.6295 8.52555 28.5982 8.43999 28.54C8.35466 28.4777 8.29127 28.3899 8.25893 28.2893C8.22659 28.1887 8.22697 28.0804 8.26 27.98L10.01 22.59L5.42 19.26C5.33697 19.1958 5.27534 19.1079 5.24321 19.0079C5.21108 18.9079 5.20995 18.8006 5.23999 18.7C5.27207 18.598 5.33599 18.509 5.42238 18.446C5.50877 18.383 5.61309 18.3494 5.72 18.35H11.39L13.14 12.96C13.1809 12.8682 13.2475 12.7902 13.3318 12.7355C13.4161 12.6807 13.5145 12.6516 13.615 12.6516C13.7155 12.6516 13.8139 12.6807 13.8982 12.7355C13.9825 12.7902 14.0491 12.8682 14.09 12.96L15.84 18.35H21.51C21.6169 18.3494 21.7212 18.383 21.8076 18.446C21.894 18.509 21.9579 18.598 21.99 18.7C22.02 18.8006 22.0189 18.9079 21.9868 19.0079C21.9547 19.1079 21.893 19.1958 21.81 19.26L17.22 22.59L18.97 27.98C19.003 28.0804 19.0034 28.1887 18.9711 28.2893C18.9387 28.3899 18.8753 28.4777 18.79 28.54C18.7044 28.6026 18.6011 28.6363 18.495 28.6363C18.3889 28.6363 18.2856 28.6026 18.2 28.54L13.65 25.21L9.06 28.54C8.96297 28.6057 8.84692 28.6373 8.73 28.63ZM7.26 19.35L10.89 21.99C10.9766 22.0513 11.0409 22.139 11.0734 22.24C11.1058 22.341 11.1046 22.4498 11.07 22.55L9.65 26.83L13.28 24.18C13.3673 24.1215 13.47 24.0903 13.575 24.0903C13.68 24.0903 13.7827 24.1215 13.87 24.18L17.5 26.83L16.12 22.55C16.0853 22.4498 16.0842 22.341 16.1166 22.24C16.1491 22.139 16.2134 22.0513 16.3 21.99L19.93 19.35H15.44C15.3347 19.3498 15.232 19.3171 15.146 19.2562C15.0601 19.1953 14.9951 19.1093 14.96 19.01L13.65 14.7L12.26 18.98C12.2249 19.0793 12.1599 19.1653 12.0739 19.2262C11.988 19.2871 11.8853 19.3198 11.78 19.32L7.26 19.35Z" fill="#263238"/>
<path d="M31.3299 13.1099L33.1899 18.8499H39.2199L34.3399 22.3999L36.2099 28.1399L31.3299 24.5899L26.4499 28.1399L28.3099 22.3999L23.4299 18.8499H29.4599L31.3299 13.1099Z" fill="#F6FB18"/>
<path d="M26.45 28.6299C26.3434 28.6296 26.2391 28.5984 26.15 28.5399C26.067 28.4757 26.0053 28.3878 25.9732 28.2878C25.9411 28.1879 25.94 28.0805 25.97 27.9799L27.72 22.5899L23.14 19.2599C23.0525 19.1989 22.9868 19.1114 22.9526 19.0103C22.9183 18.9092 22.9174 18.7998 22.9498 18.6981C22.9822 18.5964 23.0463 18.5078 23.1327 18.4451C23.2191 18.3825 23.3233 18.3491 23.43 18.3499H29.1L30.85 12.9599C30.881 12.8513 30.9466 12.7557 31.0368 12.6876C31.127 12.6196 31.237 12.5828 31.35 12.5828C31.463 12.5828 31.5729 12.6196 31.6631 12.6876C31.7534 12.7557 31.8189 12.8513 31.85 12.9599L33.61 18.3499H39.27C39.3776 18.3469 39.4833 18.3787 39.5714 18.4405C39.6595 18.5023 39.7253 18.591 39.7589 18.6932C39.7926 18.7954 39.7925 18.9058 39.7584 19.0079C39.7244 19.11 39.6583 19.1984 39.57 19.2599L34.98 22.5899L36.73 27.9799C36.7646 28.0802 36.7658 28.189 36.7334 28.2899C36.7009 28.3909 36.6365 28.4786 36.55 28.5399C36.465 28.604 36.3614 28.6387 36.255 28.6387C36.1485 28.6387 36.045 28.604 35.96 28.5399L31.38 25.2099L26.79 28.5399C26.6905 28.6085 26.5703 28.6403 26.45 28.6299ZM31.33 24.0899C31.4334 24.0904 31.5344 24.1217 31.62 24.1799L35.26 26.8299L33.87 22.5499C33.8385 22.4494 33.8389 22.3416 33.8711 22.2414C33.9033 22.1411 33.9658 22.0533 34.05 21.9899L37.69 19.3499H33.19C33.086 19.3492 32.9849 19.316 32.9006 19.2551C32.8164 19.1941 32.7533 19.1084 32.72 19.0099L31.33 14.6999L29.94 18.9799C29.9049 19.0792 29.8399 19.1652 29.7539 19.2261C29.668 19.287 29.5653 19.3198 29.46 19.3199H24.97L28.61 21.9599C28.6941 22.0233 28.7566 22.1111 28.7889 22.2114C28.8211 22.3116 28.8215 22.4194 28.79 22.5199L27.4 26.7999L31.03 24.1499C31.1223 24.102 31.2263 24.0812 31.33 24.0899Z" fill="#263238"/>
<path d="M49.04 13.1099L50.91 18.8499H56.94L52.06 22.3999L53.92 28.1399L49.04 24.5899L44.16 28.1399L46.03 22.3999L41.15 18.8499H47.18L49.04 13.1099Z" fill="#F6FB18"/>
<path d="M44.16 28.6299C44.0565 28.6294 43.9555 28.5981 43.87 28.5399C43.7834 28.4786 43.719 28.3909 43.6866 28.2899C43.6541 28.189 43.6553 28.0802 43.69 27.9799L45.44 22.5899L40.85 19.2599C40.7617 19.1984 40.6956 19.11 40.6615 19.0079C40.6275 18.9058 40.6273 18.7954 40.661 18.6932C40.6947 18.591 40.7605 18.5023 40.8486 18.4405C40.9367 18.3787 41.0424 18.3469 41.15 18.3499H46.81L48.57 12.9599C48.601 12.8513 48.6666 12.7557 48.7568 12.6876C48.847 12.6196 48.957 12.5828 49.07 12.5828C49.183 12.5828 49.2929 12.6196 49.3831 12.6876C49.4733 12.7557 49.5389 12.8513 49.57 12.9599L51.32 18.3499H56.99C57.0967 18.3491 57.2009 18.3825 57.2873 18.4451C57.3737 18.5078 57.4378 18.5964 57.4702 18.6981C57.5026 18.7998 57.5016 18.9092 57.4674 19.0103C57.4332 19.1114 57.3675 19.1989 57.28 19.2599L52.65 22.5899L54.4 27.9799C54.43 28.0805 54.4289 28.1879 54.3968 28.2878C54.3646 28.3878 54.303 28.4757 54.22 28.5399C54.135 28.604 54.0314 28.6387 53.925 28.6387C53.8185 28.6387 53.715 28.604 53.63 28.5399L49.04 25.2099L44.46 28.5399C44.3708 28.5984 44.2666 28.6296 44.16 28.6299ZM49.04 24.0899C49.1468 24.089 49.2513 24.1204 49.34 24.1799L52.97 26.8299L51.58 22.5499C51.5499 22.4493 51.5511 22.342 51.5832 22.242C51.6153 22.1421 51.6769 22.0542 51.76 21.9899L55.4 19.3499H50.91C50.8046 19.3498 50.702 19.317 50.616 19.2561C50.5301 19.1952 50.4651 19.1092 50.43 19.0099L49.04 14.6999L47.65 19.0099C47.6167 19.1084 47.5536 19.1941 47.4693 19.2551C47.3851 19.316 47.2839 19.3492 47.18 19.3499H42.65L46.29 21.9899C46.3765 22.0512 46.4409 22.1389 46.4733 22.2399C46.5058 22.3409 46.5046 22.4497 46.47 22.5499L45.08 26.8299L48.72 24.1799C48.8139 24.1157 48.9263 24.0841 49.04 24.0899Z" fill="#263238"/>
<path d="M66.76 13.1099L68.62 18.8499H74.65L69.77 22.3999L71.64 28.1399L66.76 24.5899L61.88 28.1399L63.74 22.3999L58.86 18.8499H64.89L66.76 13.1099Z" fill="#F6FB18"/>
<path d="M71.65 28.63C71.5432 28.6309 71.4387 28.5995 71.35 28.54L66.77 25.21L62.18 28.54C62.0944 28.6026 61.9911 28.6363 61.885 28.6363C61.7789 28.6363 61.6757 28.6026 61.59 28.54C61.5047 28.4777 61.4413 28.3899 61.409 28.2893C61.3766 28.1887 61.377 28.0804 61.41 27.98L63.16 22.59L58.58 19.26C58.4941 19.198 58.4296 19.1107 58.3956 19.0104C58.3615 18.91 58.3596 18.8015 58.39 18.7C58.4221 18.598 58.486 18.509 58.5724 18.446C58.6588 18.383 58.7631 18.3494 58.87 18.35H64.54L66.29 12.96C66.3309 12.8682 66.3975 12.7902 66.4818 12.7355C66.5661 12.6807 66.6645 12.6516 66.765 12.6516C66.8655 12.6516 66.9639 12.6807 67.0482 12.7355C67.1325 12.7902 67.1991 12.8682 67.24 12.96L68.99 18.35H74.65C74.7569 18.3494 74.8612 18.383 74.9476 18.446C75.034 18.509 75.098 18.598 75.13 18.7C75.1601 18.8006 75.1589 18.9079 75.1268 19.0079C75.0947 19.1079 75.033 19.1958 74.95 19.26L70.36 22.59L72.11 27.98C72.143 28.0804 72.1434 28.1887 72.1111 28.2893C72.0787 28.3899 72.0154 28.4777 71.93 28.54C71.8473 28.5963 71.7501 28.6276 71.65 28.63ZM66.77 24.09C66.8735 24.0905 66.9745 24.1218 67.06 24.18L70.69 26.83L69.31 22.55C69.2754 22.4498 69.2742 22.341 69.3066 22.24C69.3391 22.139 69.4034 22.0513 69.49 21.99L73.12 19.35H68.65C68.5447 19.3498 68.442 19.3171 68.3561 19.2562C68.2701 19.1953 68.2051 19.1093 68.17 19.01L66.76 14.7L65.37 18.98C65.3349 19.0793 65.2699 19.1653 65.184 19.2262C65.098 19.2871 64.9953 19.3198 64.89 19.32H60.4L64.03 21.96C64.1166 22.0213 64.1809 22.109 64.2134 22.21C64.2459 22.311 64.2447 22.4198 64.21 22.52L62.83 26.8L66.46 24.15C66.5519 24.101 66.6563 24.0801 66.76 24.09H66.77Z" fill="#263238"/>
<path d="M84.4699 13.1099L86.3299 18.8499H92.3599L87.4799 22.3999L89.3499 28.1399L84.4699 24.5899L79.5899 28.1399L81.4499 22.3999L76.5699 18.8499H82.5999L84.4699 13.1099Z" fill="#F6FB18"/>
<path d="M79.59 28.63C79.4832 28.6309 79.3787 28.5995 79.29 28.54C79.207 28.4757 79.1453 28.3878 79.1132 28.2879C79.0811 28.1879 79.08 28.0806 79.11 27.98L80.86 22.59L76.28 19.26C76.1925 19.1989 76.1268 19.1114 76.0926 19.0103C76.0583 18.9092 76.0574 18.7998 76.0898 18.6982C76.1222 18.5965 76.1863 18.5078 76.2727 18.4452C76.3591 18.3825 76.4633 18.3492 76.57 18.35H82.24L83.99 12.96C84.0238 12.8599 84.0885 12.773 84.1747 12.7119C84.261 12.6508 84.3643 12.6187 84.47 12.62C84.5751 12.6159 84.6785 12.6472 84.7637 12.7088C84.8489 12.7705 84.911 12.8589 84.94 12.96L86.7 18.35H92.36C92.4676 18.3469 92.5733 18.3787 92.6614 18.4406C92.7495 18.5024 92.8153 18.591 92.849 18.6932C92.8827 18.7955 92.8825 18.9058 92.8484 19.0079C92.8144 19.11 92.7483 19.1984 92.66 19.26L88.07 22.59L89.82 27.98C89.8547 28.0802 89.8558 28.189 89.8234 28.29C89.7909 28.391 89.7266 28.4787 89.64 28.54C89.5566 28.6032 89.4547 28.6375 89.35 28.6375C89.2453 28.6375 89.1435 28.6032 89.06 28.54L84.47 25.21L79.88 28.54C79.7945 28.5982 79.6935 28.6295 79.59 28.63ZM78.11 19.35L81.75 21.99C81.833 22.0542 81.8947 22.1421 81.9268 22.2421C81.9589 22.342 81.96 22.4494 81.93 22.55L80.54 26.83L84.18 24.18C84.2652 24.1211 84.3664 24.0895 84.47 24.0895C84.5736 24.0895 84.6748 24.1211 84.76 24.18L88.4 26.83L87.01 22.55C86.9785 22.4495 86.9789 22.3417 87.0112 22.2414C87.0434 22.1411 87.1059 22.0533 87.19 21.99L90.83 19.35H86.33C86.226 19.3492 86.1249 19.3161 86.0407 19.2551C85.9564 19.1942 85.8933 19.1085 85.86 19.01L84.47 14.7L83.08 18.98C83.0455 19.0777 82.982 19.1626 82.8981 19.2233C82.8141 19.2841 82.7136 19.3178 82.61 19.32L78.11 19.35Z" fill="#263238"/>
<path d="M61.58 123.5C61.58 123.5 53.23 114.85 52.58 109.9C52.133 105.792 51.926 101.662 51.96 97.5298C51.96 95.6798 49.49 83.3098 49.49 78.9798C49.49 74.6498 53.82 69.6998 54.74 71.8698C55.66 74.0398 54.74 83.3098 58.15 88.2598C61.56 93.2098 65.88 104.64 66.8 110.21C67.412 114.717 67.7227 119.261 67.73 123.81" fill="white"/>
<path d="M67.7599 124.31C67.6273 124.31 67.5001 124.257 67.4064 124.164C67.3126 124.07 67.2599 123.943 67.2599 123.81C67.2511 119.288 66.9438 114.771 66.3399 110.29C65.4399 104.89 61.2199 93.57 57.7599 88.54C55.4299 85.14 55.0699 79.89 54.8199 76.05C54.8103 74.7011 54.6391 73.3582 54.3099 72.05C54.2199 71.82 54.1199 71.8 53.9499 71.84C52.6899 72.1 50.0199 75.63 50.0199 78.96C50.3209 83.1547 50.8651 87.3284 51.6499 91.46C52.1299 94.46 52.5099 96.76 52.5099 97.53C52.4762 101.642 52.6832 105.752 53.1299 109.84C53.7199 114.56 61.8699 123.07 61.9599 123.16C62.0068 123.206 62.044 123.262 62.0694 123.323C62.0948 123.384 62.1078 123.449 62.1078 123.515C62.1078 123.581 62.0948 123.646 62.0694 123.707C62.044 123.768 62.0068 123.823 61.9599 123.87C61.9143 123.917 61.8598 123.954 61.7997 123.979C61.7396 124.004 61.6751 124.017 61.6099 124.017C61.5447 124.017 61.4802 124.004 61.4201 123.979C61.36 123.954 61.3055 123.917 61.2599 123.87C60.9099 123.51 52.7899 115.04 52.1499 109.98C51.7036 105.852 51.4966 101.702 51.5299 97.55C51.5299 96.86 51.1399 94.44 50.6799 91.64C49.9599 87.19 49.0599 81.64 49.0599 79C49.0599 75.46 51.8099 71.3 53.7899 70.9C54.0907 70.8247 54.4086 70.8638 54.6821 71.0098C54.9556 71.1558 55.1651 71.3982 55.2699 71.69C55.6534 73.0946 55.8484 74.5439 55.8499 76C56.0999 79.72 56.4399 84.82 58.6299 88C62.1499 93.13 66.4499 104.66 67.3699 110.16C67.98 114.695 68.2907 119.265 68.2999 123.84C68.2961 123.907 68.2791 123.972 68.2497 124.032C68.2204 124.092 68.1793 124.145 68.129 124.189C68.0787 124.233 68.0201 124.266 67.9567 124.287C67.8933 124.308 67.8264 124.315 67.7599 124.31Z" fill="#263238"/>
<path d="M48.59 82.3799C48.59 82.3799 40.24 75.5799 38.39 78.6699C36.54 81.7599 37.46 84.5499 40.24 85.4699C43.02 86.3899 47.97 89.4699 48.9 86.3999C49.83 83.3299 48.59 82.3799 48.59 82.3799Z" fill="white"/>
<path d="M47 88.24C45.2909 88.046 43.6308 87.5446 42.1 86.76C41.36 86.44 40.67 86.14 40.1 85.95C39.4489 85.7594 38.8501 85.4224 38.3492 84.9648C37.8483 84.5073 37.4586 83.9412 37.21 83.31C36.9631 82.4877 36.9041 81.6205 37.0374 80.7724C37.1706 79.9242 37.4928 79.1169 37.98 78.41C38.139 78.1415 38.3564 77.9121 38.6161 77.739C38.8757 77.5659 39.171 77.4535 39.48 77.41C42.48 76.87 48.25 81.41 48.92 81.99C49.12 82.14 50.38 83.28 49.4 86.54C49.3208 86.8557 49.1732 87.1502 48.9676 87.4025C48.7619 87.6548 48.5033 87.8588 48.21 88C47.8301 88.1706 47.4163 88.2527 47 88.24ZM40 78.36C39.8769 78.3497 39.7531 78.3497 39.63 78.36C39.4626 78.3818 39.3025 78.4419 39.162 78.5355C39.0216 78.6292 38.9046 78.7539 38.82 78.9C38.4147 79.4734 38.1425 80.1301 38.0231 80.822C37.9037 81.514 37.9403 82.2239 38.13 82.9C38.3303 83.3847 38.6391 83.8171 39.0326 84.1638C39.4261 84.5105 39.8939 84.7624 40.4 84.9C41.02 85.11 41.74 85.41 42.49 85.74C44.34 86.53 46.65 87.52 47.77 87C47.9334 86.9163 48.0763 86.7977 48.1887 86.6525C48.301 86.5073 48.38 86.3391 48.42 86.16C49.22 83.51 48.29 82.68 48.28 82.67L48.59 82.28L48.27 82.67C46.71 81.49 42.34 78.36 40 78.36Z" fill="#263238"/>
<path d="M48.28 93.8198C48.28 93.8198 39.62 85.8198 38.08 88.5698C36.54 91.3198 36.22 94.4398 39.01 96.2998C41.8 98.1598 48.9 103.1 50.45 100.3C52 97.4998 48.28 93.8198 48.28 93.8198Z" fill="white"/>
<path d="M48.83 101.64C46.09 101.64 41.63 98.64 39.14 96.98L38.73 96.71C36.06 94.93 35.67 91.88 37.64 88.32C37.759 88.1016 37.9279 87.9145 38.133 87.7737C38.338 87.633 38.5734 87.5426 38.82 87.51C41.65 87.06 47.92 92.8 48.62 93.46C48.79 93.62 52.62 97.46 50.87 100.55C50.7309 100.805 50.5382 101.026 50.3051 101.199C50.0719 101.371 49.804 101.491 49.52 101.55C49.2941 101.606 49.0626 101.636 48.83 101.64ZM39.19 88.48H38.98C38.8823 88.4935 38.789 88.5294 38.7075 88.5849C38.6259 88.6404 38.5584 88.714 38.51 88.8C37.51 90.59 36.3 93.88 39.28 95.87L39.69 96.14C41.91 97.63 47.11 101.14 49.3 100.58C49.4501 100.553 49.5922 100.492 49.7152 100.402C49.8383 100.312 49.9391 100.195 50.01 100.06C51.33 97.69 48.09 94.33 47.93 94.17C45.49 91.92 41.08 88.48 39.19 88.48Z" fill="#263238"/>
<path d="M47.6499 101.86C47.6499 101.86 38.9999 93.86 37.4499 96.6C35.8999 99.34 35.5899 102.48 38.3799 104.33C41.1699 106.18 48.2699 111.14 49.8199 108.33C51.3699 105.52 47.6499 101.86 47.6499 101.86Z" fill="white"/>
<path d="M48.21 109.7C45.47 109.7 41.01 106.7 38.52 105.05L38.11 104.77C35.44 102.99 35.05 99.9398 37.02 96.3798C37.14 96.1602 37.3105 95.9722 37.5174 95.8314C37.7243 95.6906 37.9616 95.6009 38.21 95.5698C41.01 95.1198 47.3 100.86 48 101.51C48.16 101.67 51.95 105.51 50.24 108.6C50.102 108.853 49.9108 109.074 49.6795 109.247C49.4482 109.419 49.1823 109.54 48.9 109.6C48.6752 109.663 48.4433 109.696 48.21 109.7ZM38.57 96.5398H38.36C38.2625 96.5499 38.1692 96.5846 38.0888 96.6406C38.0083 96.6965 37.9434 96.7719 37.9 96.8598C36.9 98.6398 35.68 101.94 38.66 103.93L39.08 104.21C41.3 105.69 46.49 109.16 48.68 108.64C48.8301 108.613 48.9722 108.552 49.0953 108.462C49.2183 108.372 49.3191 108.255 49.39 108.12C50.71 105.75 47.47 102.39 47.31 102.23C44.87 99.9598 40.46 96.5198 38.57 96.5198V96.5398Z" fill="#263238"/>
<path d="M45.5 109.24C45.5 109.24 39.2 103.38 38.07 105.41C36.94 107.44 36.72 109.69 38.75 111.04C40.78 112.39 45.95 116.04 47.08 113.97C48.21 111.9 45.5 109.24 45.5 109.24Z" fill="white"/>
<path d="M45.91 115.07C43.91 115.07 40.59 112.88 38.76 111.66L38.47 111.46C36.47 110.14 36.18 107.79 37.63 105.17C37.7302 104.987 37.8737 104.831 38.048 104.716C38.2223 104.601 38.4221 104.53 38.63 104.51C40.7 104.16 45.04 108.09 45.88 108.87C46 108.99 48.83 111.87 47.54 114.19C47.4288 114.392 47.2758 114.567 47.0913 114.705C46.9068 114.843 46.695 114.94 46.47 114.99C46.2872 115.039 46.0992 115.066 45.91 115.07ZM38.91 105.48H38.77C38.7185 105.484 38.669 105.502 38.6268 105.532C38.5846 105.562 38.5512 105.603 38.53 105.65C37.83 106.91 36.96 109.23 39.04 110.65L39.34 110.84C40.94 111.92 44.7 114.43 46.23 114.06C46.3241 114.039 46.4116 113.995 46.4848 113.932C46.558 113.869 46.6147 113.79 46.65 113.7C47.56 112.07 45.29 109.7 45.16 109.57C43.39 107.97 40.22 105.48 38.89 105.48H38.91Z" fill="#263238"/>
</svg>
