<svg width="632" height="632" viewBox="0 0 632 632" fill="none" xmlns="http://www.w3.org/2000/svg">
<path d="M502.693 549.575C522.914 535.303 539.476 516.454 551.028 494.565C623.278 359.204 606.96 159.605 467.819 73.9945C403.507 34.4313 310.944 9.39151 241.424 50.0165C185.05 82.9816 150.492 145.031 121.9 201.482C103.939 236.987 89.1373 275.198 66.992 308.416C38.2739 351.493 6.66128 409.03 38.5773 459.085C82.0715 527.265 164.219 558.397 238.706 578.899C319.527 601.133 410.408 604.281 485.06 560.913C491.102 557.399 496.98 553.619 502.693 549.575Z" fill="#92E3A9"/>
<path opacity="0.7" d="M502.693 549.575C522.914 535.303 539.476 516.454 551.028 494.565C623.278 359.204 606.96 159.605 467.819 73.9945C403.507 34.4313 310.944 9.39151 241.424 50.0165C185.05 82.9816 150.492 145.031 121.9 201.482C103.939 236.987 89.1373 275.198 66.992 308.416C38.2739 351.493 6.66128 409.03 38.5773 459.085C82.0715 527.265 164.219 558.397 238.706 578.899C319.527 601.133 410.408 604.281 485.06 560.913C491.102 557.399 496.98 553.619 502.693 549.575Z" fill="white"/>
<path d="M490.546 61.1649H152.83V406.009H490.546V61.1649Z" fill="#263238" stroke="#263238" stroke-linecap="round" stroke-linejoin="round"/>
<path d="M163.309 86.1037H154.853" stroke="#ABABAB" stroke-linecap="round" stroke-linejoin="round"/>
<path d="M163.309 101.701H154.853" stroke="#ABABAB" stroke-linecap="round" stroke-linejoin="round"/>
<path d="M163.309 117.287H154.853" stroke="#ABABAB" stroke-linecap="round" stroke-linejoin="round"/>
<path d="M163.309 132.884H154.853" stroke="#ABABAB" stroke-linecap="round" stroke-linejoin="round"/>
<path d="M163.309 148.469H154.853" stroke="#ABABAB" stroke-linecap="round" stroke-linejoin="round"/>
<path d="M163.309 164.067H154.853" stroke="#ABABAB" stroke-linecap="round" stroke-linejoin="round"/>
<path d="M163.309 179.652H154.853" stroke="#ABABAB" stroke-linecap="round" stroke-linejoin="round"/>
<path d="M163.309 195.237H154.853" stroke="#ABABAB" stroke-linecap="round" stroke-linejoin="round"/>
<path d="M163.309 210.835H154.853" stroke="#ABABAB" stroke-linecap="round" stroke-linejoin="round"/>
<path d="M163.309 226.42H154.853" stroke="#ABABAB" stroke-linecap="round" stroke-linejoin="round"/>
<path d="M163.309 242.018H154.853" stroke="#ABABAB" stroke-linecap="round" stroke-linejoin="round"/>
<path d="M163.309 257.603H154.853" stroke="#ABABAB" stroke-linecap="round" stroke-linejoin="round"/>
<path d="M163.309 273.188H154.853" stroke="#ABABAB" stroke-linecap="round" stroke-linejoin="round"/>
<path d="M163.309 288.786H154.853" stroke="#ABABAB" stroke-linecap="round" stroke-linejoin="round"/>
<path d="M163.309 304.371H154.853" stroke="#ABABAB" stroke-linecap="round" stroke-linejoin="round"/>
<path d="M163.309 319.969H154.853" stroke="#ABABAB" stroke-linecap="round" stroke-linejoin="round"/>
<path d="M163.309 335.554H154.853" stroke="#ABABAB" stroke-linecap="round" stroke-linejoin="round"/>
<path d="M163.309 351.152H154.853" stroke="#ABABAB" stroke-linecap="round" stroke-linejoin="round"/>
<path d="M163.309 366.737H154.853" stroke="#ABABAB" stroke-linecap="round" stroke-linejoin="round"/>
<path d="M163.309 382.322H154.853" stroke="#ABABAB" stroke-linecap="round" stroke-linejoin="round"/>
<path d="M163.814 84.0307V78.052" stroke="#ABABAB" stroke-linecap="round" stroke-linejoin="round"/>
<path d="M180.246 84.0307V78.052" stroke="#ABABAB" stroke-linecap="round" stroke-linejoin="round"/>
<path d="M196.691 84.0307V78.052" stroke="#ABABAB" stroke-linecap="round" stroke-linejoin="round"/>
<path d="M213.123 84.0307V78.052" stroke="#ABABAB" stroke-linecap="round" stroke-linejoin="round"/>
<path d="M229.555 84.0307V78.052" stroke="#ABABAB" stroke-linecap="round" stroke-linejoin="round"/>
<path d="M246 84.0307V78.052" stroke="#ABABAB" stroke-linecap="round" stroke-linejoin="round"/>
<path d="M262.432 84.0307V78.052" stroke="#ABABAB" stroke-linecap="round" stroke-linejoin="round"/>
<path d="M278.864 84.0307V78.052" stroke="#ABABAB" stroke-linecap="round" stroke-linejoin="round"/>
<path d="M295.308 84.0307V78.052" stroke="#ABABAB" stroke-linecap="round" stroke-linejoin="round"/>
<path d="M311.74 84.0307V78.052" stroke="#ABABAB" stroke-linecap="round" stroke-linejoin="round"/>
<path d="M328.172 84.0307V78.052" stroke="#ABABAB" stroke-linecap="round" stroke-linejoin="round"/>
<path d="M344.617 84.0307V78.052" stroke="#ABABAB" stroke-linecap="round" stroke-linejoin="round"/>
<path d="M361.049 84.0307V78.052" stroke="#ABABAB" stroke-linecap="round" stroke-linejoin="round"/>
<path d="M377.481 84.0307V78.052" stroke="#ABABAB" stroke-linecap="round" stroke-linejoin="round"/>
<path d="M393.926 84.0307V78.052" stroke="#ABABAB" stroke-linecap="round" stroke-linejoin="round"/>
<path d="M410.358 84.0307V78.052" stroke="#ABABAB" stroke-linecap="round" stroke-linejoin="round"/>
<path d="M426.79 84.0307V78.052" stroke="#ABABAB" stroke-linecap="round" stroke-linejoin="round"/>
<path d="M443.234 84.0307V78.052" stroke="#ABABAB" stroke-linecap="round" stroke-linejoin="round"/>
<path d="M459.666 84.0307V78.052" stroke="#ABABAB" stroke-linecap="round" stroke-linejoin="round"/>
<path d="M490.558 61.1649H479.536V406.009H490.558V61.1649Z" fill="#696969" stroke="#263238" stroke-linecap="round" stroke-linejoin="round"/>
<path d="M490.558 228.62H479.536V258.235H490.558V228.62Z" fill="#263238" stroke="#263238" stroke-linecap="round" stroke-linejoin="round"/>
<path d="M490.546 395.442H152.83V406.009H490.546V395.442Z" fill="#696969" stroke="#263238" stroke-linecap="round" stroke-linejoin="round"/>
<path d="M480.08 86.1037H163.309V395.303H480.08V86.1037Z" fill="white" stroke="#263238" stroke-linecap="round" stroke-linejoin="round"/>
<path d="M163.018 298.026H480.383" stroke="#263238" stroke-linecap="round" stroke-linejoin="round"/>
<path d="M490.546 61.1649H152.83V76.3077H490.546V61.1649Z" fill="#696969" stroke="#263238" stroke-linecap="round" stroke-linejoin="round"/>
<path d="M246.392 61.1649H152.83V76.3077H246.392V61.1649Z" fill="#8A8A8A" stroke="#263238" stroke-linecap="round" stroke-linejoin="round"/>
<path d="M314.926 314.913C314.749 314.066 313.485 313.295 311.424 312.954L309.996 269.472C309.947 269.033 309.734 268.628 309.4 268.338C309.066 268.049 308.635 267.896 308.193 267.911C307.751 267.925 307.331 268.105 307.016 268.416C306.701 268.726 306.515 269.144 306.495 269.586L307.91 312.802C305.117 312.979 302.766 313.889 303.006 314.913C303.474 316.961 315.633 318.3 314.926 314.913Z" fill="white" stroke="#263238" stroke-linecap="round" stroke-linejoin="round"/>
<path d="M371.717 231.375C371.717 231.375 377.923 233.903 375.85 239.136C373.777 244.369 359.81 262.419 346.349 266.565C332.887 270.711 322.029 269.156 311.677 269.662C301.325 270.167 272.354 270.698 264.593 269.662C260.49 269.238 256.476 268.193 252.686 266.565C252.686 266.565 263.038 271.216 281.67 251.549C300.301 231.881 303.36 214.299 331.863 214.88C360.366 215.461 371.717 231.375 371.717 231.375Z" fill="white" stroke="#263238" stroke-linecap="round" stroke-linejoin="round"/>
<path d="M274.414 234.472C274.414 234.472 268.208 225.156 258.892 221.541C249.577 217.926 211.278 209.116 206.108 216.877C200.938 224.638 215.424 244.306 229.391 255.176C243.358 266.047 257.856 271.216 271.836 268.12C285.816 265.023 317.896 231.893 323.584 228.784C329.272 225.675 367.053 229.302 371.717 231.375C371.717 231.375 391.385 165.647 391.385 160.983C391.385 156.319 385.166 157.368 380.515 163.056C375.863 168.744 349.976 181.687 323.066 172.89C296.155 164.092 289.456 147.534 278.08 156.85C266.704 166.165 263.595 190.978 269.232 211.707C274.869 232.437 274.414 234.472 274.414 234.472Z" fill="#92E3A9" stroke="#263238" stroke-linecap="round" stroke-linejoin="round"/>
<path d="M246.278 255.328C245.33 254.961 244.356 254.57 243.371 254.152" stroke="#263238" stroke-linecap="round" stroke-linejoin="round"/>
<path d="M367.053 227.229C367.053 227.229 330.827 222.06 324.077 224.132C317.327 226.205 304.927 244.356 288.887 252.585C275.489 259.499 264.618 261.003 251.448 257.098" stroke="#263238" stroke-linecap="round" stroke-linejoin="round"/>
<path d="M291.137 248.123C291.769 248.427 292.401 248.705 293.046 248.97" stroke="#263238" stroke-linecap="round" stroke-linejoin="round"/>
<path d="M274.414 234.472C278.443 239.292 283.218 243.436 288.559 246.745" stroke="#263238" stroke-linecap="round" stroke-linejoin="round"/>
<path d="M250.272 265.566C249.828 265.432 249.349 265.479 248.939 265.697C248.529 265.915 248.222 266.286 248.085 266.729L226.762 336.325C222.729 336.401 219.519 337.589 219.519 339.081C219.519 340.572 222.944 341.849 227.166 341.849C231.388 341.849 234.826 340.585 234.826 339.081C234.826 337.968 232.993 337.008 230.351 336.553L251.435 267.74C251.565 267.298 251.516 266.822 251.299 266.415C251.081 266.008 250.712 265.704 250.272 265.566V265.566Z" fill="white" stroke="#263238" stroke-linecap="round" stroke-linejoin="round"/>
<path d="M316.265 359.633L314.306 267.21C314.305 266.978 314.257 266.749 314.165 266.536C314.073 266.323 313.94 266.131 313.772 265.97C313.605 265.81 313.407 265.685 313.191 265.603C312.974 265.52 312.743 265.482 312.511 265.491C312.281 265.495 312.053 265.546 311.842 265.639C311.631 265.732 311.44 265.865 311.28 266.032C311.12 266.199 310.995 266.395 310.911 266.61C310.828 266.825 310.787 267.055 310.792 267.285L312.764 359.557C309.25 359.81 306.608 360.935 306.608 362.275C306.608 363.615 310.034 365.043 314.268 365.043C318.503 365.043 321.928 363.779 321.928 362.275C321.928 361.024 319.527 359.949 316.265 359.633Z" fill="white" stroke="#263238" stroke-linecap="round" stroke-linejoin="round"/>
<path d="M390.728 335.213L372.261 245.873C372.149 245.435 371.873 245.057 371.49 244.817C371.107 244.577 370.646 244.494 370.204 244.586C369.761 244.677 369.37 244.935 369.113 245.307C368.856 245.678 368.752 246.135 368.823 246.581L387.163 335.327C384.837 335.643 383.194 336.452 383.194 337.412C383.194 338.676 385.975 339.662 389.413 339.662C392.851 339.662 395.632 338.651 395.632 337.412C395.632 336.173 393.534 335.428 390.728 335.213Z" fill="white" stroke="#263238" stroke-linecap="round" stroke-linejoin="round"/>
<path d="M207.865 154.145C223.753 154.145 236.633 141.265 236.633 125.376C236.633 109.488 223.753 96.6075 207.865 96.6075C191.976 96.6075 179.096 109.488 179.096 125.376C179.096 141.265 191.976 154.145 207.865 154.145Z" fill="white" stroke="#263238" stroke-linecap="round" stroke-linejoin="round"/>
<path d="M207.865 148.229C220.486 148.229 230.718 137.998 230.718 125.376C230.718 112.755 220.486 102.523 207.865 102.523C195.243 102.523 185.012 112.755 185.012 125.376C185.012 137.998 195.243 148.229 207.865 148.229Z" fill="white" stroke="#263238" stroke-linecap="round" stroke-linejoin="round"/>
<path d="M207.865 127.525C209.052 127.525 210.014 126.563 210.014 125.376C210.014 124.189 209.052 123.227 207.865 123.227C206.678 123.227 205.716 124.189 205.716 125.376C205.716 126.563 206.678 127.525 207.865 127.525Z" fill="white" stroke="#263238" stroke-linecap="round" stroke-linejoin="round"/>
<path d="M210.014 125.376L218.394 128.637" stroke="#263238" stroke-linecap="round" stroke-linejoin="round"/>
<path d="M207.865 123.227V107.01" stroke="#263238" stroke-linecap="round" stroke-linejoin="round"/>
<path d="M549.676 98.1749H412.671V188.854H549.676V98.1749Z" fill="#263238"/>
<path opacity="0.1" d="M549.688 101.954H459.097V119.385H549.688V101.954Z" fill="white"/>
<path opacity="0.2" d="M459.097 119.397V101.967H412.671V188.854H549.688V119.397H459.097Z" fill="white"/>
<path d="M522.12 124.327H528.706" stroke="white" stroke-width="0.5" stroke-linecap="round" stroke-linejoin="round"/>
<path d="M522.12 126.842H528.706" stroke="white" stroke-width="0.5" stroke-linecap="round" stroke-linejoin="round"/>
<path d="M522.12 129.345H528.706" stroke="white" stroke-width="0.5" stroke-linecap="round" stroke-linejoin="round"/>
<path d="M522.12 131.86H528.706" stroke="white" stroke-width="0.5" stroke-linecap="round" stroke-linejoin="round"/>
<path d="M522.12 134.376H528.706" stroke="white" stroke-width="0.5" stroke-linecap="round" stroke-linejoin="round"/>
<path opacity="0.8" d="M544.481 123.291H532.548V135.223H544.481V123.291Z" fill="#263238"/>
<path d="M536.517 124.643H534.141V127.019H536.517V124.643Z" fill="white"/>
<path d="M539.64 124.643H537.263V127.019H539.64V124.643Z" fill="white"/>
<path d="M542.762 124.643H540.385V127.019H542.762V124.643Z" fill="white"/>
<path d="M536.517 127.778H534.141V130.154H536.517V127.778Z" fill="white"/>
<path d="M539.64 127.778H537.263V130.154H539.64V127.778Z" fill="white"/>
<path d="M542.762 127.778H540.385V130.154H542.762V127.778Z" fill="white"/>
<path d="M536.517 130.9H534.141V133.276H536.517V130.9Z" fill="white"/>
<path d="M539.64 130.9H537.263V133.276H539.64V130.9Z" fill="white"/>
<path d="M542.762 130.9H540.385V133.276H542.762V130.9Z" fill="white"/>
<path d="M505.726 149.594H489.737V163.941H505.726V149.594Z" fill="#263238"/>
<path d="M453.865 149.594H437.875V163.941H453.865V149.594Z" fill="#263238"/>
<path opacity="0.75" d="M453.865 149.594H437.875V163.941H453.865V149.594Z" fill="white"/>
<path opacity="0.75" d="M436.573 149.594H420.596V163.941H436.573V149.594Z" fill="white"/>
<path d="M488.448 149.594H472.458V163.941H488.448V149.594Z" fill="#263238"/>
<path opacity="0.15" d="M488.448 149.594H472.458V163.941H488.448V149.594Z" fill="white"/>
<path d="M471.143 149.594H455.166V163.941H471.143V149.594Z" fill="#263238"/>
<path opacity="0.25" d="M471.143 149.594H455.166V163.941H471.143V149.594Z" fill="white"/>
<path d="M523.157 164.927H507.281V180.12H523.157V164.927Z" fill="#92E3A9"/>
<path opacity="0.5" d="M523.157 164.927H507.281V180.12H523.157V164.927Z" fill="black"/>
<path d="M505.815 164.927H489.939V180.12H505.815V164.927Z" fill="#92E3A9"/>
<path opacity="0.2" d="M505.815 164.927H489.939V180.12H505.815V164.927Z" fill="black"/>
<path d="M488.485 164.927H472.61V180.12H488.485V164.927Z" fill="#92E3A9"/>
<path d="M471.156 164.927H455.28V180.12H471.156V164.927Z" fill="#92E3A9"/>
<path opacity="0.3" d="M471.156 164.927H455.28V180.12H471.156V164.927Z" fill="#92E3A9"/>
<path d="M453.814 164.927H437.938V180.12H453.814V164.927Z" fill="#92E3A9"/>
<path opacity="0.6" d="M453.814 164.927H437.938V180.12H453.814V164.927Z" fill="white"/>
<path d="M436.484 164.927H420.609V180.12H436.484V164.927Z" fill="white"/>
<path d="M540.411 164.927H524.535V180.12H540.411V164.927Z" fill="#92E3A9"/>
<path opacity="0.8" d="M540.411 164.927H524.535V180.12H540.411V164.927Z" fill="black"/>
<path d="M436.371 127.929H425.639V138.193H436.371V127.929Z" stroke="#263238" stroke-width="2" stroke-linecap="round" stroke-linejoin="round"/>
<path d="M431.365 122.14H420.634V132.404H431.365V122.14Z" fill="#92E3A9"/>
<path opacity="0.3" d="M431.365 122.14H420.634V132.404H431.365V122.14Z" fill="#92E3A9"/>
<path d="M422.328 111.055H449.997" stroke="white" stroke-width="2" stroke-linecap="round" stroke-linejoin="round"/>
<path d="M524.838 106.125V107.048L526.747 108.653L524.838 110.246V111.169L527.834 108.653L524.838 106.125Z" fill="white"/>
<path d="M528.112 106.125V107.048L530.02 108.653L528.112 110.246V111.169L531.107 108.653L528.112 106.125Z" fill="white"/>
<path d="M534.9 104.609V113.33" stroke="white" stroke-width="0.5" stroke-linecap="round" stroke-linejoin="round"/>
<path d="M538.692 107.263H545.517" stroke="white" stroke-width="0.5" stroke-linecap="round" stroke-linejoin="round"/>
<path d="M538.692 108.78H545.517" stroke="white" stroke-width="0.5" stroke-linecap="round" stroke-linejoin="round"/>
<path d="M538.692 110.297H545.517" stroke="white" stroke-width="0.5" stroke-linecap="round" stroke-linejoin="round"/>
<path d="M538.692 111.813H545.517" stroke="white" stroke-width="0.5" stroke-linecap="round" stroke-linejoin="round"/>
<path d="M203.972 276.146H66.9667V366.825H203.972V276.146Z" fill="#263238"/>
<path opacity="0.1" d="M203.972 279.925H113.381V297.356H203.972V279.925Z" fill="white"/>
<path opacity="0.2" d="M113.381 297.369V279.938H66.9667V366.813H203.972V297.369H113.381Z" fill="white"/>
<path d="M90.6667 305.901H79.9354V316.164H90.6667V305.901Z" stroke="#263238" stroke-width="2" stroke-linecap="round" stroke-linejoin="round"/>
<path d="M85.6613 300.112H74.9299V310.375H85.6613V300.112Z" fill="#92E3A9"/>
<path opacity="0.3" d="M85.6613 300.112H74.9299V310.375H85.6613V300.112Z" fill="#92E3A9"/>
<path d="M76.611 289.026H104.293" stroke="white" stroke-width="2" stroke-linecap="round" stroke-linejoin="round"/>
<path d="M179.134 284.097V285.019L181.03 286.625L179.134 288.217V289.14L182.13 286.625L179.134 284.097Z" fill="white"/>
<path d="M182.408 284.097V285.019L184.304 286.625L182.408 288.217V289.14L185.404 286.625L182.408 284.097Z" fill="white"/>
<path d="M189.196 282.58V291.301" stroke="white" stroke-width="0.5" stroke-linecap="round" stroke-linejoin="round"/>
<path d="M192.988 285.234H199.8" stroke="white" stroke-width="0.5" stroke-linecap="round" stroke-linejoin="round"/>
<path d="M192.988 286.751H199.8" stroke="white" stroke-width="0.5" stroke-linecap="round" stroke-linejoin="round"/>
<path d="M192.988 288.268H199.8" stroke="white" stroke-width="0.5" stroke-linecap="round" stroke-linejoin="round"/>
<path d="M192.988 289.785H199.8" stroke="white" stroke-width="0.5" stroke-linecap="round" stroke-linejoin="round"/>
<path d="M108.059 310.413H164.371" stroke="#9E9E9E" stroke-width="3" stroke-miterlimit="10"/>
<path d="M109.614 311.778L107.225 314.597V316.708H112.142V314.597L109.614 311.778Z" fill="#8F8F8F"/>
<path d="M108.059 326.2H164.371" stroke="#92E3A9" stroke-width="3" stroke-miterlimit="10"/>
<path d="M161.35 327.553L158.973 330.384V332.495H163.89V330.384L161.35 327.553Z" fill="#8F8F8F"/>
<path d="M108.059 341.975H164.371" stroke="white" stroke-width="3" stroke-miterlimit="10"/>
<path d="M108.439 343.34L106.062 346.172V348.283H110.979V346.172L108.439 343.34Z" fill="#8F8F8F"/>
<path d="M184.582 352.959H163.827V361.732H184.582V352.959Z" fill="#263238"/>
<path d="M183.988 336.881H167.038V345.653H183.988V336.881Z" fill="#263238"/>
<path d="M183.988 321.966H167.038V330.738H183.988V321.966Z" fill="#263238"/>
<path d="M183.988 307.064H167.038V315.836H183.988V307.064Z" fill="#263238"/>
<path d="M424.009 434.513C424.009 434.513 394.81 441.149 385.849 443.803C376.887 446.457 368.595 448.455 370.251 452.436C371.907 456.418 361.289 489.598 361.289 489.598L346.336 525.824L367.571 542.42L384.496 509.556L399.753 584.221H502.301C502.301 584.221 499.318 459.78 494.338 453.485C489.358 447.191 449.87 433.565 440.239 432.579C434.752 431.906 429.184 432.57 424.009 434.513V434.513Z" fill="#92E3A9" stroke="#263238" stroke-linecap="round" stroke-linejoin="round"/>
<path d="M472.281 506.055C467.861 496.597 464.111 486.84 461.057 476.857" stroke="#263238" stroke-linecap="round" stroke-linejoin="round"/>
<path d="M462.763 503.35C466.135 507.507 470.925 510.271 476.212 511.111" stroke="#263238" stroke-linecap="round" stroke-linejoin="round"/>
<path d="M458.832 496.512C459.335 497.914 459.988 499.257 460.779 500.519" stroke="#263238" stroke-linecap="round" stroke-linejoin="round"/>
<path d="M378.833 478.614L384.521 509.506L374.144 478.601" stroke="#263238" stroke-linecap="round" stroke-linejoin="round"/>
<path d="M376.849 467.806L378.037 474.303" stroke="#263238" stroke-linecap="round" stroke-linejoin="round"/>
<path d="M410.509 432.541C410.509 432.541 402.988 441.629 402.369 450.401C401.75 459.173 403.229 487.057 403.229 487.057C403.229 487.057 418.662 478.614 424.932 478.614C431.201 478.614 445.611 490.837 445.611 490.837C445.611 490.837 455.331 459.502 450.313 441.01C445.295 422.517 423.68 417.803 410.509 432.541Z" fill="white" stroke="#263238" stroke-linecap="round" stroke-linejoin="round"/>
<path d="M411.141 435.676C411.141 435.676 413.669 447.266 415.527 454.787C417.385 462.308 422.416 479.852 424.932 478.601C427.447 477.35 438.406 451.336 438.722 444.764C438.848 441.92 444.498 428.711 439.505 425.336C432.92 420.912 414.883 427.232 411.141 435.676Z" fill="white" stroke="#263238" stroke-linecap="round" stroke-linejoin="round"/>
<path d="M415.527 454.787C416.008 456.696 416.678 459.249 417.474 461.967C419.067 460.589 420.937 458.933 423.149 456.911C435.334 445.775 437.989 436.775 437.989 436.775L411.963 439.43C412.86 443.462 414.327 449.984 415.527 454.787Z" fill="#263238" stroke="#263238" stroke-miterlimit="10" stroke-linecap="round"/>
<path d="M371.907 534.065C371.907 534.065 369.922 526.102 358.635 521.792C347.347 517.482 345.995 519.466 344.364 522.79C342.734 526.115 337.728 531.082 338.727 534.394C339.725 537.706 343.707 545.681 358.306 548.664C372.905 551.648 369.922 544.354 371.578 542.344C373.234 540.335 374.89 541.371 371.907 534.065Z" fill="white" stroke="#263238" stroke-linecap="round" stroke-linejoin="round"/>
<path d="M263.392 564.894C263.392 564.894 248.464 569.874 249.122 573.199C249.779 576.523 263.721 569.217 263.721 569.217C263.721 569.217 266.047 573.527 270.37 571.871C274.692 570.216 271.027 563.567 268.701 563.908C266.375 564.25 263.392 564.894 263.392 564.894Z" fill="white" stroke="#263238" stroke-linecap="round" stroke-linejoin="round"/>
<path d="M343.366 562.24C343.366 562.24 363.59 551.294 363.59 545.985C363.59 540.676 348.32 533.711 344.339 534.04C340.357 534.369 338.701 535.696 335.718 540.676C332.735 545.656 308.504 568.219 308.504 568.219C308.504 568.219 292.578 556.931 287.927 556.931C283.275 556.931 272.657 569.217 272 574.197C271.343 579.177 293.931 581.44 302.88 581.44C313.914 581.44 343.366 562.24 343.366 562.24Z" fill="white" stroke="#263238" stroke-linecap="round" stroke-linejoin="round"/>
<path d="M294.638 573.628C294.638 573.628 282.137 559.535 266.047 565.981C249.956 572.428 251.397 583.298 251.397 583.298H298.165C298.273 581.53 298.016 579.759 297.41 578.096C296.803 576.432 295.859 574.911 294.638 573.628V573.628Z" fill="white" stroke="#263238" stroke-linecap="round" stroke-linejoin="round"/>
<path d="M270.496 556.843C270.496 556.843 264.745 557.753 263.734 559.181C262.722 560.609 256.541 568.914 258.678 570.683C260.814 572.453 267.159 562.493 268.524 561.734C269.889 560.976 272.164 559.055 270.496 556.843Z" fill="white" stroke="#263238" stroke-linecap="round" stroke-linejoin="round"/>
<path d="M275.906 558.132C275.906 558.132 273.492 554.542 270.509 556.868C267.526 559.194 262.925 569.065 263.317 571.505C263.708 573.944 267.109 572.605 268.726 570.784C270.344 568.964 275.906 558.132 275.906 558.132Z" fill="white" stroke="#263238" stroke-linecap="round" stroke-linejoin="round"/>
<path d="M289.949 558.928C289.949 558.928 283.629 553.619 279.989 553.291C276.348 552.962 275.008 555.604 274.68 558.6C274.351 561.595 269.7 575.183 271.027 575.853C272.354 576.523 275.008 576.182 276.664 573.199C278.544 569.075 280.206 564.856 281.644 560.559L284.299 562.556" fill="white"/>
<path d="M289.949 558.928C289.949 558.928 283.629 553.619 279.989 553.291C276.348 552.962 275.008 555.604 274.68 558.6C274.351 561.595 269.7 575.183 271.027 575.853C272.354 576.523 275.008 576.182 276.664 573.199C278.544 569.075 280.206 564.856 281.644 560.559L284.299 562.556" stroke="#263238" stroke-linecap="round" stroke-linejoin="round"/>
<path d="M295.359 566.866C295.359 566.866 294.284 569.723 293.21 572.225C292.136 574.728 274.25 577.939 273.555 581.162C272.86 584.385 283.92 582.224 287.851 582.224C291.782 582.224 298.923 583.298 303.221 579.696C304.992 578.094 306.905 576.656 308.934 575.398" fill="white"/>
<path d="M295.359 566.866C295.359 566.866 294.284 569.723 293.21 572.225C292.136 574.728 274.25 577.939 273.555 581.162C272.86 584.385 283.92 582.224 287.851 582.224C291.782 582.224 298.923 583.298 303.221 579.696C304.992 578.094 306.905 576.656 308.934 575.398" stroke="#263238" stroke-linecap="round" stroke-linejoin="round"/>
<path d="M476.439 467.68C474.411 471.202 472.637 474.864 471.131 478.639C469.804 482.621 473.456 531.727 473.456 531.727C477.86 530.354 482.541 530.128 487.057 531.07C494.022 532.725 507.964 540.36 507.964 540.36C507.964 540.36 509.291 526.089 506.965 515.472C504.639 504.854 500.329 462.043 497.346 457.732C494.363 453.422 495.362 451.096 489.054 453.422" fill="#92E3A9"/>
<path d="M476.439 467.68C474.411 471.202 472.637 474.864 471.131 478.639C469.804 482.621 473.456 531.727 473.456 531.727C477.86 530.354 482.541 530.128 487.057 531.07C494.022 532.725 507.964 540.36 507.964 540.36C507.964 540.36 509.291 526.089 506.965 515.472C504.639 504.854 500.329 462.043 497.346 457.732C494.363 453.422 495.362 451.096 489.054 453.422" stroke="#263238" stroke-linecap="round" stroke-linejoin="round"/>
<path d="M512.615 532.144C512.615 532.144 503.653 524.56 496.689 522.854C489.724 521.147 476.465 522.854 474.455 523.511C472.445 524.168 471.131 526.494 470.802 529.831C470.473 533.168 468.148 535.468 469.804 537.415C471.459 539.361 480.75 545.707 488.384 547.704C496.019 549.701 507.635 548.968 509.291 544.051C510.947 539.134 514.271 535.721 512.615 532.144Z" fill="white" stroke="#263238" stroke-linecap="round" stroke-linejoin="round"/>
<path d="M334.884 558.915C334.884 558.915 324.203 563.491 320.765 564.641C317.327 565.792 316.177 568.939 319.248 569.975C322.32 571.012 336.249 565.792 337.564 566.183C338.878 566.575 353.212 571.151 357.788 571.53C360.815 571.603 363.776 570.64 366.181 568.8C366.181 568.8 344.427 555.098 334.884 558.915Z" fill="white" stroke="#263238" stroke-linecap="round" stroke-linejoin="round"/>
<path d="M498.345 553.341C500.093 552.768 501.637 551.702 502.793 550.271C503.948 548.839 504.664 547.104 504.855 545.275C505.046 543.445 504.704 541.6 503.87 539.961C503.035 538.321 501.744 536.959 500.152 536.037C497.816 534.707 495.306 533.707 492.695 533.067C484.777 531.162 476.477 531.601 468.805 534.331C465.493 535.658 390.993 558.473 385.646 559.232C380.3 559.99 345.198 548.159 339.852 547.78C332.773 547.274 324.595 565.969 322.307 570.949C321.879 571.725 321.636 572.591 321.6 573.477C321.593 573.929 321.736 574.371 322.005 574.734C322.275 575.097 322.656 575.362 323.091 575.487C324.102 575.664 324.974 574.817 325.619 574.02C330.334 568.143 332.925 560.458 338.878 555.819L330.624 571.758C330.112 572.593 329.785 573.528 329.664 574.501C329.613 574.985 329.713 575.474 329.951 575.899C330.189 576.324 330.552 576.666 330.991 576.877C332.255 577.345 333.582 576.194 334.379 575.057C336.06 572.277 337.563 569.394 338.878 566.424C340.383 563.542 342.392 560.748 345.312 559.345C342.064 564.957 339.441 570.908 337.488 577.092C337.322 577.563 337.332 578.078 337.515 578.542C337.699 579.007 338.044 579.389 338.487 579.62C339.751 580.189 340.749 578.937 341.368 577.863L350.216 562.379C347.874 567.721 345.767 573.152 343.896 578.672C343.729 579.035 343.676 579.441 343.745 579.835C343.809 580.027 343.915 580.202 344.055 580.348C344.195 580.495 344.365 580.609 344.554 580.682C345.061 580.856 345.607 580.884 346.13 580.763C346.653 580.643 347.132 580.378 347.512 579.999C348.251 579.222 348.831 578.307 349.218 577.307C350.811 573.805 351.936 570.077 353.591 566.651C358.167 567.624 361.984 571.897 366.99 572.668C371.995 573.439 381.109 571.138 381.109 571.138C381.109 571.138 472.117 558.637 484.112 556.312C488.903 555.562 493.653 554.57 498.345 553.341V553.341Z" fill="white" stroke="#263238" stroke-linecap="round" stroke-linejoin="round"/>
<path d="M447.14 394.924C448.267 394.261 449.578 393.982 450.877 394.128C452.176 394.274 453.393 394.837 454.345 395.733C456.342 397.667 455.836 404.467 455.154 408.891C453.89 417.55 447.57 420.065 447.57 420.065C447.57 420.065 438.343 440.782 430.582 447.873C422.821 454.964 413.745 457.353 402.42 440.428C397.44 432.971 389.919 397.452 389.919 397.452C389.919 397.452 387.113 389.186 391.347 382.284C395.581 375.383 409.283 369.088 418.296 368.62C427.308 368.153 435.031 373.676 439.531 378.505C444.031 383.333 446.331 391.006 446.331 391.006L446.9 395.063L447.14 394.924Z" fill="white" stroke="#263238" stroke-miterlimit="10"/>
<path d="M417.12 406.49C417.31 407.918 418.055 409.018 418.776 408.917C419.496 408.816 419.913 407.577 419.724 406.136C419.534 404.695 418.789 403.608 418.081 403.709C417.373 403.81 416.88 405.049 417.12 406.49Z" fill="#263238"/>
<path d="M400.385 409.106C400.574 410.547 401.307 411.634 402.028 411.533C402.748 411.432 403.178 410.206 402.976 408.765C402.774 407.324 402.053 406.237 401.333 406.338C400.612 406.439 400.195 407.678 400.385 409.106Z" fill="#263238"/>
<path d="M423.655 397.275C422.344 396.197 420.782 395.467 419.115 395.151C417.447 394.835 415.726 394.944 414.112 395.468" stroke="#263238" stroke-width="2" stroke-miterlimit="10" stroke-linecap="round"/>
<path d="M403.317 399.917C401.794 399.85 400.286 400.248 398.994 401.058C397.703 401.869 396.689 403.054 396.087 404.455" stroke="#263238" stroke-width="2" stroke-miterlimit="10" stroke-linecap="round"/>
<path d="M408.171 403.216C408.171 403.216 409.789 416.185 410.294 419.155C410.8 422.125 407.766 424.666 409.106 426.6C410.446 428.534 413.341 427.674 413.341 427.674" stroke="#263238" stroke-miterlimit="10" stroke-linecap="round"/>
<path d="M415.173 433.729C415.173 433.729 422.593 433.362 425.981 427.94" stroke="#263238" stroke-miterlimit="10" stroke-linecap="round"/>
<path d="M422.492 358.091C422.492 358.091 407.627 352.77 396.972 356.827C386.316 360.885 387.012 366.636 380.616 369.695C374.22 372.754 366.332 377.152 368.368 386.658C369.783 393.243 378.998 399.298 389.919 397.414C400.84 395.531 413.872 386.999 417.727 384.926C421.505 383.174 425.399 381.683 429.381 380.464C429.381 380.464 430.063 391.271 434.273 393.104C438.482 394.937 439.784 396.808 440.593 398.83C441.624 400.982 442.811 403.057 444.144 405.036L447.582 404.872L446.95 398.704C449.369 392.733 450.078 386.208 448.998 379.857C446.988 370.15 435.865 363.956 435.865 363.956L422.492 358.091Z" fill="#263238"/>
<path d="M387.214 393.774C387.214 393.774 405.807 390.361 417.221 379.491C428.635 368.62 412.582 361.908 412.582 361.908" stroke="white" stroke-width="0.431737" stroke-miterlimit="10" stroke-linecap="round"/>
<path d="M415.034 359.886C416.437 359.355 431.58 363.678 431.77 371.186C431.959 378.694 427.46 380.932 427.46 380.932" stroke="white" stroke-width="0.431737" stroke-miterlimit="10" stroke-linecap="round"/>
<path d="M81.2626 492.796C83.2218 493.655 88.0376 493.541 88.0376 493.541C88.0376 493.541 87.0011 490.394 86.9126 490.204C85.8635 487.992 82.5139 484.352 79.809 484.719C79.3598 484.791 78.931 484.957 78.5504 485.207C78.1699 485.456 77.8462 485.783 77.6005 486.166C77.3548 486.549 77.1926 486.979 77.1245 487.429C77.0563 487.879 77.0838 488.338 77.2051 488.776C77.6475 490.66 79.632 492.063 81.2626 492.796Z" fill="#263238"/>
<path d="M144.26 476.414C141.543 476.124 138.307 479.865 137.308 482.09C137.22 482.292 136.221 485.465 136.272 485.465C135.754 486.046 135.21 486.728 134.629 487.386C133.554 488.65 132.366 490.179 131.178 491.898C129.874 493.722 128.68 495.621 127.601 497.586C126.387 499.781 125.368 502.077 124.555 504.45C124.556 504.479 124.556 504.509 124.555 504.538C124.555 503.742 124.555 501.492 124.555 501.328C124.239 498.901 122.216 494.388 119.499 493.895C119.045 493.818 118.581 493.838 118.136 493.953C117.691 494.068 117.275 494.277 116.917 494.565C116.558 494.853 116.265 495.214 116.057 495.623C115.848 496.033 115.729 496.482 115.707 496.942C115.555 498.876 116.971 500.797 118.31 501.998C119.65 503.198 124.125 504.69 124.466 504.804C123.693 507.241 123.089 509.728 122.659 512.249C122.393 513.715 122.178 515.194 121.976 516.685C121.976 515.99 121.976 515.421 121.976 515.282C121.66 512.855 119.638 508.356 116.92 507.863C116.467 507.783 116.001 507.801 115.555 507.916C115.109 508.03 114.693 508.239 114.334 508.527C113.975 508.815 113.682 509.177 113.474 509.588C113.266 509.998 113.148 510.449 113.128 510.909C112.976 512.83 114.392 514.701 115.732 515.965C117.567 517.184 119.58 518.113 121.698 518.72C121.622 519.289 121.546 519.858 121.483 520.439C121.154 523.182 120.838 525.925 120.447 528.617C120.308 529.565 120.131 530.488 119.966 531.411C119.966 530.804 119.966 530.273 119.966 530.147C119.663 527.72 117.628 523.22 114.91 522.715C114.46 522.652 114.002 522.685 113.566 522.812C113.129 522.938 112.724 523.155 112.377 523.449C112.03 523.742 111.749 524.105 111.552 524.514C111.354 524.924 111.245 525.37 111.232 525.824C111.068 527.745 112.496 529.679 113.836 530.88C115.607 532.077 117.557 532.986 119.612 533.572C119.423 534.52 119.22 535.468 118.98 536.378C118.803 536.985 118.677 537.642 118.475 538.199C118.272 538.755 118.083 539.463 117.893 540.006C117.476 541.131 117.059 542.307 116.629 543.394C116.339 544.165 116.048 544.885 115.744 545.606C115.896 544.67 116.149 542.825 116.149 542.673C116.123 540.519 115.544 538.408 114.468 536.543C114.487 536.303 114.487 536.062 114.468 535.822C114.413 535.371 114.263 534.936 114.028 534.547C113.793 534.158 113.478 533.823 113.105 533.564C112.731 533.305 112.307 533.127 111.86 533.044C111.413 532.961 110.953 532.973 110.512 533.079C107.857 533.775 106.176 538.426 106.05 540.866C106.05 541.017 106.138 542.585 106.214 543.583C106.088 543.002 105.961 542.446 105.809 541.852C105.531 540.676 105.228 539.526 104.899 538.274C104.71 537.668 104.533 537.074 104.343 536.454C104.154 535.835 103.913 535.19 103.711 534.609C103.18 533.168 102.586 531.752 101.942 530.324C104.087 529.884 106.151 529.112 108.059 528.036C109.5 526.924 111.042 525.104 111.03 523.17C111.036 522.711 110.945 522.256 110.762 521.834C110.579 521.413 110.31 521.035 109.971 520.726C109.631 520.417 109.23 520.183 108.794 520.04C108.358 519.897 107.897 519.848 107.44 519.896C104.71 520.199 102.384 524.535 101.853 526.936C101.853 527.088 101.664 528.845 101.588 529.806C101.208 528.959 100.817 528.099 100.4 527.278C99.1355 524.825 97.8715 522.386 96.6075 519.934C96.203 519.188 95.8238 518.442 95.432 517.697C95.7986 517.608 100.134 516.597 101.752 515.345C103.37 514.094 104.735 512.413 104.722 510.479C104.735 510.024 104.651 509.572 104.477 509.152C104.302 508.732 104.042 508.354 103.711 508.041C103.381 507.729 102.988 507.49 102.559 507.339C102.13 507.188 101.674 507.13 101.221 507.167C98.4909 507.458 96.1651 511.794 95.6342 514.195C95.6342 514.372 95.3688 516.913 95.3435 517.557C94.484 515.902 93.6498 514.246 92.8155 512.59C91.8059 510.318 90.9446 507.983 90.237 505.6C90.4013 505.6 94.939 504.538 96.557 503.249C98.0106 502.137 99.54 500.317 99.5274 498.383C99.5318 497.935 99.4438 497.492 99.2688 497.08C99.0939 496.668 98.8357 496.297 98.5105 495.989C98.1854 495.682 97.8002 495.445 97.3792 495.294C96.9582 495.142 96.5105 495.079 96.064 495.109C93.3464 495.412 91.008 499.748 90.4771 502.149C90.4771 502.339 90.199 505.057 90.1864 505.562C90.1864 505.423 90.0853 505.284 90.0474 505.145C89.3707 502.759 88.9054 500.319 88.657 497.852C88.5053 496.487 88.4421 495.185 88.4042 493.908C89.2637 493.807 93.2074 493.276 94.8379 492.29C96.4685 491.304 98.1243 489.699 98.3266 487.778C98.383 487.329 98.3455 486.874 98.2166 486.441C98.0877 486.007 97.8702 485.606 97.5778 485.261C97.2854 484.916 96.9246 484.636 96.5182 484.439C96.1118 484.241 95.6688 484.13 95.2171 484.112C92.4742 484.112 89.6555 488.169 88.8971 490.432C88.8971 490.558 88.5811 491.886 88.3915 492.859C88.3915 492.29 88.3915 491.696 88.3915 491.14C88.3915 489.067 88.5306 487.171 88.657 485.49C88.7454 484.542 88.8339 483.682 88.935 482.873C89.7187 482.33 92.8914 480.092 93.8646 478.487C94.8379 476.882 95.5963 474.695 94.8885 472.875C94.735 472.447 94.4934 472.056 94.1793 471.727C93.8652 471.399 93.4855 471.14 93.065 470.967C92.6444 470.794 92.1922 470.711 91.7377 470.724C91.2833 470.737 90.8366 470.846 90.4266 471.042C87.987 472.306 87.3424 477.211 87.7469 479.612C87.7469 479.827 88.7075 483.025 88.7454 483C88.6317 483.771 88.5306 484.605 88.4294 485.528C88.2651 487.209 88.0882 489.105 88.0502 491.19C87.965 493.429 88.0157 495.67 88.2019 497.902C88.4001 500.408 88.8231 502.892 89.4659 505.322C89.4604 505.351 89.4604 505.381 89.4659 505.41C89.0362 504.728 87.7595 502.882 87.6458 502.743C86.0531 500.898 81.8693 498.256 79.3413 499.331C78.9278 499.521 78.559 499.797 78.259 500.14C77.9589 500.482 77.7343 500.884 77.5996 501.319C77.4649 501.754 77.4232 502.213 77.4772 502.665C77.5312 503.117 77.6796 503.553 77.913 503.944C78.8357 505.638 81.073 506.472 82.8805 506.738C84.9155 507.028 89.2005 505.79 89.5544 505.689C90.263 508.145 91.1329 510.552 92.1582 512.893C92.7523 514.258 93.4222 515.611 94.0416 516.976C93.6498 516.395 93.2958 515.889 93.2326 515.826C91.64 513.968 87.4562 511.339 84.9282 512.413C84.5249 512.608 84.1663 512.884 83.8749 513.225C83.5836 513.565 83.3658 513.962 83.2352 514.39C83.1046 514.819 83.0641 515.27 83.1162 515.715C83.1682 516.16 83.3118 516.589 83.5378 516.976C84.4605 518.67 86.6978 519.504 88.5053 519.769C90.3128 520.035 94.0163 519.049 94.9896 518.784C95.2424 519.302 95.4952 519.82 95.7606 520.326C97.0246 522.854 98.2886 525.268 99.401 527.72C99.8181 528.592 100.185 529.452 100.551 530.324C100.21 529.818 99.9066 529.388 99.856 529.325C98.2507 527.48 94.0795 524.838 91.5515 525.913C91.137 526.102 90.767 526.377 90.4656 526.719C90.1642 527.061 89.9382 527.463 89.8023 527.898C89.6664 528.333 89.6236 528.792 89.6767 529.245C89.7298 529.698 89.8776 530.134 90.1106 530.526C91.0459 532.22 93.2706 533.054 95.0907 533.32C97.2336 533.33 99.3652 533.01 101.411 532.372C101.765 533.269 102.119 534.166 102.422 535.051C102.612 535.671 102.852 536.239 103.003 536.859C103.155 537.478 103.345 538.123 103.509 538.679C103.8 539.854 104.09 541.068 104.331 542.205C104.508 543.014 104.672 543.773 104.824 544.544C104.432 543.672 103.56 542.016 103.56 541.864C102.296 539.791 98.5035 536.555 95.8744 537.238C95.4356 537.361 95.0277 537.575 94.6774 537.867C94.3272 538.159 94.0425 538.521 93.842 538.93C93.6415 539.34 93.5298 539.787 93.5141 540.242C93.4984 540.698 93.5791 541.151 93.7509 541.573C94.2001 542.449 94.8339 543.217 95.6086 543.823C96.3833 544.43 97.2804 544.861 98.2381 545.087C100.172 545.669 104.432 545.087 104.963 545.087C105.215 546.351 105.456 547.615 105.658 548.778C105.961 550.548 106.227 552.178 106.441 553.67H103.913V583.336H115.707V553.632H114.152C114.62 552.558 115.1 551.433 115.593 550.207C116.086 548.981 116.604 547.679 117.122 546.326C117.64 546.44 121.85 547.287 123.821 546.844C125.793 546.402 127.765 545.441 128.561 543.672C128.763 543.264 128.876 542.818 128.894 542.363C128.912 541.909 128.833 541.456 128.664 541.033C128.494 540.611 128.238 540.229 127.911 539.913C127.584 539.597 127.194 539.353 126.767 539.197C124.175 538.325 120.206 541.27 118.753 543.242C118.664 543.356 117.881 544.721 117.4 545.593L118.02 543.925C118.424 542.8 118.803 541.662 119.22 540.436C119.397 539.829 119.587 539.172 119.764 538.616C119.941 538.06 120.093 537.352 120.257 536.72C120.611 535.241 120.889 533.711 121.142 532.182C122.14 532.536 125.667 533.775 127.462 533.636C129.257 533.496 131.57 532.839 132.632 531.221C132.894 530.849 133.075 530.426 133.163 529.978C133.251 529.531 133.243 529.071 133.14 528.627C133.038 528.183 132.842 527.766 132.567 527.403C132.292 527.039 131.944 526.738 131.544 526.519C129.105 525.255 124.744 527.581 123 529.3C122.899 529.414 121.736 530.792 121.205 531.563C121.344 530.64 121.496 529.717 121.609 528.769C121.951 526.052 122.204 523.296 122.469 520.541L122.734 518.013C123.088 518.152 127.26 519.706 129.307 519.555C131.127 519.428 133.415 518.758 134.477 517.14C134.738 516.767 134.917 516.344 135.004 515.897C135.09 515.451 135.082 514.991 134.98 514.547C134.877 514.104 134.683 513.687 134.409 513.324C134.135 512.961 133.788 512.659 133.39 512.438C130.95 511.174 126.59 513.5 124.845 515.219C124.719 515.358 123.126 517.343 122.747 517.861C122.949 516.015 123.164 514.17 123.442 512.362C123.816 509.917 124.344 507.498 125.022 505.12C125.187 505.183 129.535 506.826 131.633 506.674C133.453 506.548 135.741 505.878 136.803 504.26C137.063 503.886 137.242 503.462 137.327 503.015C137.413 502.568 137.404 502.108 137.3 501.664C137.196 501.221 137 500.804 136.725 500.441C136.45 500.079 136.102 499.778 135.703 499.558C133.276 498.294 128.903 500.62 127.171 502.339C127.032 502.478 125.326 504.614 125.048 505.031C125.048 504.892 125.111 504.74 125.161 504.601C125.906 502.241 126.862 499.952 128.018 497.763C128.65 496.499 129.282 495.412 129.977 494.325C130.761 494.704 134.338 496.449 136.297 496.525C138.256 496.6 140.481 496.183 141.707 494.679C142.006 494.337 142.231 493.935 142.365 493.501C142.5 493.067 142.541 492.609 142.488 492.157C142.434 491.706 142.286 491.27 142.054 490.88C141.821 490.489 141.509 490.151 141.138 489.889C138.85 488.372 134.262 490.204 132.29 491.721L130.533 493.478C130.849 492.985 131.153 492.48 131.469 492.025C132.606 490.293 133.769 488.789 134.806 487.462C135.4 486.703 135.943 486.046 136.474 485.427C137.435 485.427 141.315 485.288 143.009 484.491C143.927 484.133 144.755 483.579 145.436 482.867C146.118 482.155 146.635 481.303 146.953 480.371C147.055 479.933 147.066 479.478 146.984 479.036C146.902 478.593 146.729 478.173 146.476 477.801C146.223 477.429 145.895 477.114 145.514 476.875C145.132 476.636 144.705 476.479 144.26 476.414V476.414ZM114.101 549.613C113.457 551.079 112.837 552.431 112.268 553.67H108.16C107.895 552.103 107.592 550.371 107.212 548.475C106.96 547.211 106.656 545.808 106.34 544.392C107.638 543.883 108.904 543.296 110.132 542.635C111.783 544.054 113.62 545.241 115.593 546.162C115.024 547.312 114.582 548.576 114.101 549.613Z" fill="#263238"/>
<path d="M129.914 493.845C129.914 493.845 130.786 490.647 130.811 490.445C131.153 488.018 130.382 483.139 127.904 481.951C127.49 481.763 127.04 481.665 126.585 481.663C126.13 481.66 125.68 481.754 125.263 481.938C124.847 482.122 124.474 482.391 124.169 482.729C123.864 483.066 123.634 483.464 123.493 483.897C122.836 485.717 123.67 487.942 124.668 489.484C125.831 491.279 129.901 493.845 129.914 493.845Z" fill="#263238"/>
<path d="M279.723 583.652H364.765V579.203H279.723V583.652Z" fill="white" stroke="#263238" stroke-linecap="round" stroke-linejoin="round"/>
<path d="M236.368 583.652H342.784V579.203H236.368V583.652Z" fill="white" stroke="#263238" stroke-linecap="round" stroke-linejoin="round"/>
<path d="M197.184 583.424H256.086V580.682H197.184V583.424Z" fill="white" stroke="#263238" stroke-linecap="round" stroke-linejoin="round"/>
<path d="M151.882 565.299H278.838V483.429H151.882V565.299Z" fill="white" stroke="#263238" stroke-linecap="round" stroke-linejoin="round"/>
<path d="M151.882 565.299H271.899V483.429H151.882V565.299Z" fill="#263238" stroke="#263238" stroke-linecap="round" stroke-linejoin="round"/>
<path d="M195.819 584.676H223.589V521.476H195.819V584.676Z" fill="white" stroke="#263238" stroke-linecap="round" stroke-linejoin="round"/>
<path d="M193.253 584.676H221.023V521.476H193.253V584.676Z" fill="#263238" stroke="#263238" stroke-linecap="round" stroke-linejoin="round"/>
<path d="M222.868 522.209H192.608V565.488" stroke="white" stroke-linecap="round" stroke-linejoin="round"/>
<path d="M121.799 593.65H567.94V583.614H121.799V593.65Z" fill="white" stroke="#263238" stroke-linecap="round" stroke-linejoin="round"/>
<path d="M84.6754 593.65H407.817V583.614H84.6754V593.65Z" fill="#263238" stroke="#263238" stroke-linecap="round" stroke-linejoin="round"/>
<path d="M419.617 216.057L391 203L404.247 231.528L407.849 221.732L417.506 231.339C417.773 231.604 418.133 231.752 418.509 231.751C418.885 231.749 419.245 231.599 419.51 231.333C419.774 231.066 419.922 230.705 419.921 230.33C419.92 229.954 419.77 229.594 419.503 229.329L409.682 219.571L419.617 216.057Z" fill="white" stroke="#263238" stroke-linecap="round" stroke-linejoin="round"/>
<path d="M421.88 240.705V241.337H421.248" stroke="#263238" stroke-width="0.5" stroke-linecap="round" stroke-linejoin="round"/>
<path d="M420.11 241.337H411.59" stroke="#263238" stroke-width="0.5" stroke-linecap="round" stroke-linejoin="round" stroke-dasharray="0.9 0.9"/>
<path d="M411.022 241.337H410.39V240.705" stroke="#263238" stroke-width="0.5" stroke-linecap="round" stroke-linejoin="round"/>
<path d="M410.39 239.428V232.337" stroke="#263238" stroke-width="0.5" stroke-linecap="round" stroke-linejoin="round" stroke-dasharray="1.02 1.02"/>
<path d="M410.39 231.705V231.073H411.022" stroke="#263238" stroke-width="0.5" stroke-linecap="round" stroke-linejoin="round"/>
<path d="M412.159 231.061H420.679" stroke="#263238" stroke-width="0.5" stroke-linecap="round" stroke-linejoin="round" stroke-dasharray="0.9 0.9"/>
<path d="M421.248 231.073H421.88V231.705" stroke="#263238" stroke-width="0.5" stroke-linecap="round" stroke-linejoin="round"/>
<path d="M421.879 232.982V240.06" stroke="#263238" stroke-width="0.5" stroke-linecap="round" stroke-linejoin="round" stroke-dasharray="1.02 1.02"/>
<path d="M428.528 234.094H415.231V247.392H428.528V234.094Z" fill="white" stroke="#263238" stroke-linecap="round" stroke-linejoin="round"/>
<path d="M421.728 236.471V244.383" stroke="#263238" stroke-linecap="round" stroke-linejoin="round"/>
<path d="M417.481 240.705H425.962" stroke="#263238" stroke-linecap="round" stroke-linejoin="round"/>
</svg>
