<svg width="175" height="48" viewBox="0 0 175 48" fill="none" xmlns="http://www.w3.org/2000/svg">
<circle cx="24" cy="24" r="24" fill="#1877F2"/>
<path d="M10.1655 30.6686L14.2079 16L17.3118 16L20.4639 27.3414L23.8325 16L27.0087 16L30.8104 30.5714C30.9227 31.0248 31.0671 31.3567 31.2435 31.5671C31.42 31.7776 31.6927 31.8829 32.0616 31.8829H33V33H25.6853V31.8829H26.8884C27.1611 31.8829 27.3455 31.7857 27.4418 31.5914C27.522 31.4133 27.522 31.13 27.4418 30.7414L24.386 18.72L21.1617 29.8186L21.3542 30.5714C21.4825 31.0248 21.6269 31.3567 21.7873 31.5671C21.9477 31.7776 22.1723 31.8829 22.461 31.8829H23.4475V33H16.3013V31.8829H17.5043C17.777 31.8829 17.9615 31.7857 18.0577 31.5914C18.154 31.4133 18.154 31.13 18.0577 30.7414L14.8576 18.8171L11.6574 30.7414C11.5451 31.1948 11.5371 31.4943 11.6333 31.64C11.7295 31.8019 11.922 31.8829 12.2108 31.8829H13.2695V33H8L8 31.8829L9.10683 31.8829C9.36349 31.8829 9.57202 31.7938 9.73244 31.6157C9.89285 31.4376 10.0372 31.1219 10.1655 30.6686Z" fill="white"/>
<path d="M37.4873 33C36.7428 33 36.1421 32.7723 35.6853 32.3169C35.2284 31.8616 35 31.2605 35 30.5137C35 29.7304 35.2284 29.1202 35.6853 28.6831C36.1421 28.2277 36.7428 28 37.4873 28C38.2318 28 38.8325 28.2277 39.2893 28.6831C39.7631 29.1202 40 29.7304 40 30.5137C40 31.2605 39.7631 31.8616 39.2893 32.3169C38.8325 32.7723 38.2318 33 37.4873 33Z" fill="white"/>
<path d="M67.457 29.6406C68.2253 29.6406 68.9316 29.6081 69.5762 29.543C70.2207 29.4779 70.7839 29.403 71.2656 29.3184C71.8255 29.2272 72.3366 29.1198 72.7988 28.9961L72.5156 30.5781C72.4375 30.5716 72.3203 30.5651 72.1641 30.5586C72.0078 30.5521 71.832 30.5456 71.6367 30.5391C71.4479 30.5326 71.2461 30.526 71.0312 30.5195C70.8229 30.5195 70.6243 30.5163 70.4355 30.5098C70.2467 30.5098 70.0775 30.5065 69.9277 30.5C69.7845 30.5 69.6803 30.5 69.6152 30.5H65.3965V30.4609C65.4355 30.3242 65.4714 30.1549 65.5039 29.9531C65.543 29.7513 65.5755 29.5007 65.6016 29.2012C65.6276 28.9017 65.6471 28.5469 65.6602 28.1367C65.6732 27.7201 65.6797 27.235 65.6797 26.6816V20.3242C65.6797 19.7708 65.6732 19.2891 65.6602 18.8789C65.6471 18.4622 65.6276 18.1042 65.6016 17.8047C65.5755 17.4987 65.543 17.2448 65.5039 17.043C65.4714 16.8411 65.4355 16.6719 65.3965 16.5352V16.4961H67.7402V16.5352C67.7012 16.6719 67.6621 16.8411 67.623 17.043C67.5905 17.2448 67.5612 17.4987 67.5352 17.8047C67.5156 18.1042 67.4961 18.4622 67.4766 18.8789C67.4635 19.2891 67.457 19.7708 67.457 20.3242V29.6406ZM74.5957 30.4609C74.6348 30.3242 74.6706 30.1549 74.7031 29.9531C74.7422 29.7513 74.7747 29.5007 74.8008 29.2012C74.8268 28.9017 74.8464 28.5469 74.8594 28.1367C74.8724 27.7201 74.8789 27.235 74.8789 26.6816V20.3242C74.8789 19.7708 74.8724 19.2891 74.8594 18.8789C74.8464 18.4622 74.8268 18.1042 74.8008 17.8047C74.7747 17.4987 74.7422 17.2448 74.7031 17.043C74.6706 16.8411 74.6348 16.6719 74.5957 16.5352V16.4961H76.9395V16.5352C76.9004 16.6719 76.8613 16.8411 76.8223 17.043C76.7897 17.2448 76.7604 17.4987 76.7344 17.8047C76.7148 18.1042 76.6953 18.4622 76.6758 18.8789C76.6628 19.2891 76.6562 19.7708 76.6562 20.3242V22.502L82.3594 17.8438C82.9974 17.3229 83.3164 16.8737 83.3164 16.4961H86.0605V16.5352C85.6764 16.6263 85.2858 16.8021 84.8887 17.0625C84.498 17.3164 84.0814 17.6289 83.6387 18L78.5996 22.2188L84.6641 28.8789C84.918 29.1393 85.1328 29.3574 85.3086 29.5332C85.4909 29.7025 85.6504 29.8457 85.7871 29.9629C85.9238 30.0736 86.0475 30.168 86.1582 30.2461C86.2754 30.3177 86.3958 30.3893 86.5195 30.4609V30.5H83.6582C83.6322 30.4414 83.5866 30.3665 83.5215 30.2754C83.4629 30.1842 83.3913 30.0898 83.3066 29.9922C83.2285 29.8945 83.1406 29.7936 83.043 29.6895C82.9518 29.5853 82.8639 29.4876 82.7793 29.3965L76.6562 22.6777V26.6816C76.6562 27.235 76.6628 27.7201 76.6758 28.1367C76.6953 28.5469 76.7148 28.9017 76.7344 29.2012C76.7604 29.5007 76.7897 29.7513 76.8223 29.9531C76.8613 30.1549 76.9004 30.3242 76.9395 30.4609V30.5H74.5957V30.4609ZM89.5859 24.2988C90.224 24.416 90.8066 24.429 91.334 24.3379C91.8678 24.2402 92.3236 24.0384 92.7012 23.7324C93.0853 23.4199 93.3815 23 93.5898 22.4727C93.8047 21.9453 93.9121 21.3008 93.9121 20.5391C93.9121 20.0117 93.8568 19.5332 93.7461 19.1035C93.6354 18.6673 93.4694 18.2995 93.248 18C93.0332 17.694 92.7598 17.4596 92.4277 17.2969C92.0957 17.1276 91.7083 17.043 91.2656 17.043C90.9857 17.043 90.7415 17.056 90.5332 17.082C90.3249 17.1016 90.1491 17.1243 90.0059 17.1504C89.8366 17.1829 89.6966 17.2188 89.5859 17.2578V24.2988ZM87.5254 16.4961C87.6556 16.5091 87.7923 16.5221 87.9355 16.5352C88.0592 16.5482 88.196 16.5579 88.3457 16.5645C88.502 16.5645 88.6615 16.5645 88.8242 16.5645C89.0781 16.5645 89.4199 16.5352 89.8496 16.4766C90.2858 16.4115 90.8392 16.3789 91.5098 16.3789C92.1348 16.3789 92.7109 16.4701 93.2383 16.6523C93.7721 16.8346 94.2344 17.1016 94.625 17.4531C95.0156 17.8047 95.3184 18.2344 95.5332 18.7422C95.7546 19.2435 95.8652 19.8164 95.8652 20.4609C95.8652 21.3268 95.6927 22.0755 95.3477 22.707C95.0026 23.3385 94.5404 23.8496 93.9609 24.2402C93.3815 24.6309 92.7142 24.8978 91.959 25.041C91.2038 25.1777 90.4128 25.1842 89.5859 25.0605V26.6816C89.5859 27.235 89.5924 27.7201 89.6055 28.1367C89.625 28.5469 89.6445 28.9017 89.6641 29.2012C89.6901 29.5007 89.7194 29.7513 89.752 29.9531C89.791 30.1549 89.8301 30.3242 89.8691 30.4609V30.5H87.5254V30.4609C87.5645 30.3242 87.6003 30.1549 87.6328 29.9531C87.6719 29.7513 87.7044 29.5007 87.7305 29.2012C87.7565 28.9017 87.776 28.5469 87.7891 28.1367C87.8021 27.7201 87.8086 27.235 87.8086 26.6816V20.3242C87.8086 19.7708 87.8021 19.2891 87.7891 18.8789C87.776 18.4622 87.7565 18.1042 87.7305 17.8047C87.7044 17.4987 87.6719 17.2448 87.6328 17.043C87.6003 16.8411 87.5645 16.6719 87.5254 16.5352V16.4961ZM103.082 30.4609C103.154 30.3568 103.235 30.2038 103.326 30.002C103.417 29.7936 103.489 29.5332 103.541 29.2207C103.613 28.765 103.691 28.2539 103.775 27.6875C103.867 27.1146 103.958 26.5156 104.049 25.8906C104.146 25.2656 104.241 24.6276 104.332 23.9766C104.43 23.319 104.521 22.6745 104.605 22.043C104.697 21.4049 104.781 20.793 104.859 20.207C104.944 19.6146 105.019 19.0742 105.084 18.5859C105.149 18.0977 105.201 17.6745 105.24 17.3164C105.286 16.9518 105.318 16.6784 105.338 16.4961H106.578L112.721 27.9805L118.814 16.4961H119.742L121.344 28.0977C121.389 28.4622 121.438 28.7747 121.49 29.0352C121.542 29.2956 121.594 29.5202 121.646 29.709C121.699 29.8913 121.747 30.0443 121.793 30.168C121.845 30.2852 121.894 30.3828 121.939 30.4609V30.5H119.479V30.4609C119.511 30.3893 119.54 30.2721 119.566 30.1094C119.599 29.9466 119.615 29.7513 119.615 29.5234C119.615 29.4388 119.612 29.3542 119.605 29.2695C119.599 29.1784 119.589 29.0807 119.576 28.9766L118.336 19.6211L112.574 30.4609L111.9 30.3828L106.1 19.5234C105.872 21.0664 105.673 22.4922 105.504 23.8008C105.432 24.3607 105.361 24.9206 105.289 25.4805C105.217 26.0339 105.152 26.5514 105.094 27.0332C105.042 27.515 104.999 27.9414 104.967 28.3125C104.934 28.6771 104.918 28.9473 104.918 29.123C104.918 29.3444 104.924 29.5397 104.938 29.709C104.951 29.8783 104.964 30.0215 104.977 30.1387C104.996 30.2754 105.016 30.3958 105.035 30.5H103.082V30.4609ZM123.473 27.6191C123.473 27.1048 123.577 26.6589 123.785 26.2812C124 25.9036 124.283 25.5814 124.635 25.3145C124.986 25.0475 125.387 24.8327 125.836 24.6699C126.285 24.5007 126.751 24.3704 127.232 24.2793C127.714 24.1816 128.189 24.1165 128.658 24.084C129.127 24.0449 129.557 24.0221 129.947 24.0156V23.5176C129.947 23.0879 129.892 22.7168 129.781 22.4043C129.671 22.0918 129.514 21.8346 129.312 21.6328C129.111 21.4245 128.867 21.2715 128.58 21.1738C128.3 21.0697 127.991 21.0176 127.652 21.0176C127.418 21.0176 127.187 21.0371 126.959 21.0762C126.731 21.1152 126.493 21.1803 126.246 21.2715C126.005 21.3626 125.748 21.4863 125.475 21.6426C125.208 21.7988 124.918 21.9974 124.605 22.2383L124.508 22.1797L125.172 20.8027C125.387 20.7051 125.598 20.627 125.807 20.5684C126.015 20.5033 126.227 20.4512 126.441 20.4121C126.656 20.373 126.874 20.347 127.096 20.334C127.324 20.3145 127.561 20.3047 127.809 20.3047C128.492 20.3047 129.075 20.3893 129.557 20.5586C130.045 20.7214 130.442 20.9492 130.748 21.2422C131.061 21.5286 131.288 21.8672 131.432 22.2578C131.575 22.6419 131.646 23.0553 131.646 23.498V26.6816C131.646 27.235 131.653 27.7201 131.666 28.1367C131.686 28.5469 131.705 28.9017 131.725 29.2012C131.751 29.5007 131.78 29.7513 131.812 29.9531C131.852 30.1549 131.891 30.3242 131.93 30.4609V30.5H129.771V30.4609C129.804 30.3568 129.827 30.2396 129.84 30.1094C129.859 29.9792 129.876 29.8229 129.889 29.6406C129.752 29.7578 129.589 29.8783 129.4 30.002C129.218 30.1257 129.007 30.2396 128.766 30.3438C128.531 30.4414 128.268 30.5195 127.975 30.5781C127.688 30.6432 127.372 30.6758 127.027 30.6758C125.895 30.6758 125.019 30.4121 124.4 29.8848C123.782 29.3509 123.473 28.5957 123.473 27.6191ZM129.947 24.7773C129.355 24.7839 128.785 24.8197 128.238 24.8848C127.691 24.9434 127.206 25.0703 126.783 25.2656C126.367 25.4609 126.031 25.7409 125.777 26.1055C125.53 26.4635 125.406 26.9421 125.406 27.541C125.406 28.3092 125.598 28.8952 125.982 29.2988C126.367 29.7025 126.897 29.9043 127.574 29.9043C127.887 29.9043 128.17 29.862 128.424 29.7773C128.684 29.6862 128.912 29.5755 129.107 29.4453C129.309 29.3086 129.479 29.1621 129.615 29.0059C129.752 28.8431 129.856 28.6868 129.928 28.5371C129.941 28.2897 129.947 28.0163 129.947 27.7168C129.947 27.4108 129.947 27.0658 129.947 26.6816V24.7773ZM141.324 23.918C141.324 23.0586 141.152 22.4271 140.807 22.0234C140.462 21.6198 139.999 21.418 139.42 21.418C139.212 21.418 138.977 21.4635 138.717 21.5547C138.456 21.6393 138.189 21.7565 137.916 21.9062C137.643 22.0495 137.369 22.2188 137.096 22.4141C136.822 22.6094 136.565 22.8177 136.324 23.0391L136.305 24.3184V26.6816C136.305 27.235 136.311 27.7201 136.324 28.1367C136.337 28.5469 136.357 28.9017 136.383 29.2012C136.409 29.5007 136.438 29.7513 136.471 29.9531C136.503 30.1549 136.539 30.3242 136.578 30.4609V30.5H134.322V30.4609C134.361 30.3242 134.397 30.1549 134.43 29.9531C134.469 29.7513 134.498 29.5007 134.518 29.2012C134.544 28.9017 134.563 28.5469 134.576 28.1367C134.596 27.7201 134.605 27.235 134.605 26.6816V24.3184C134.605 23.765 134.596 23.2832 134.576 22.873C134.563 22.4564 134.544 22.0983 134.518 21.7988C134.498 21.4993 134.469 21.2487 134.43 21.0469C134.397 20.8451 134.361 20.6758 134.322 20.5391V20.5H136.578V20.5391C136.526 20.7018 136.484 20.9102 136.451 21.1641C136.425 21.4115 136.396 21.737 136.363 22.1406C136.63 21.9193 136.917 21.6979 137.223 21.4766C137.535 21.2552 137.857 21.0599 138.189 20.8906C138.521 20.7148 138.86 20.5749 139.205 20.4707C139.55 20.36 139.889 20.3047 140.221 20.3047C140.729 20.3047 141.158 20.3926 141.51 20.5684C141.868 20.7441 142.158 20.9753 142.379 21.2617C142.607 21.5482 142.77 21.877 142.867 22.248C142.971 22.6126 143.023 22.9837 143.023 23.3613V26.6816C143.023 27.235 143.03 27.7201 143.043 28.1367C143.056 28.5469 143.076 28.9017 143.102 29.2012C143.128 29.5007 143.157 29.7513 143.189 29.9531C143.222 30.1549 143.258 30.3242 143.297 30.4609V30.5H141.041V30.4609C141.08 30.3242 141.116 30.1549 141.148 29.9531C141.188 29.7513 141.217 29.5007 141.236 29.2012C141.262 28.9017 141.282 28.5469 141.295 28.1367C141.314 27.7201 141.324 27.235 141.324 26.6816V23.918ZM150.426 20.3242C150.693 20.3242 150.96 20.347 151.227 20.3926C151.493 20.4382 151.754 20.5033 152.008 20.5879C152.262 20.6725 152.503 20.7767 152.73 20.9004C152.958 21.0241 153.163 21.1641 153.346 21.3203V19.7188C153.346 19.1654 153.339 18.6836 153.326 18.2734C153.313 17.8568 153.294 17.4987 153.268 17.1992C153.242 16.8997 153.212 16.6491 153.18 16.4473C153.147 16.2454 153.111 16.0762 153.072 15.9395V15.9004H155.328V15.9395C155.289 16.0762 155.25 16.2454 155.211 16.4473C155.178 16.6491 155.149 16.8997 155.123 17.1992C155.104 17.4987 155.084 17.8568 155.064 18.2734C155.051 18.6836 155.045 19.1654 155.045 19.7188V26.6816C155.045 27.235 155.051 27.7201 155.064 28.1367C155.084 28.5469 155.104 28.9017 155.123 29.2012C155.149 29.5007 155.178 29.7513 155.211 29.9531C155.25 30.1549 155.289 30.3242 155.328 30.4609V30.5H153.17V30.4609C153.189 30.4089 153.206 30.334 153.219 30.2363C153.232 30.1322 153.248 30.0052 153.268 29.8555C152.936 30.0638 152.519 30.2526 152.018 30.4219C151.516 30.5911 150.934 30.6758 150.27 30.6758C149.495 30.6758 148.792 30.5553 148.16 30.3145C147.529 30.0736 146.988 29.7285 146.539 29.2793C146.096 28.8301 145.755 28.2865 145.514 27.6484C145.273 27.0039 145.152 26.2812 145.152 25.4805C145.152 24.7448 145.283 24.0645 145.543 23.4395C145.803 22.8079 146.168 22.2611 146.637 21.7988C147.105 21.3366 147.662 20.9753 148.307 20.7148C148.951 20.4544 149.658 20.3242 150.426 20.3242ZM153.346 23.0391C153.085 22.3555 152.711 21.8509 152.223 21.5254C151.741 21.1999 151.197 21.0371 150.592 21.0371C150.084 21.0371 149.615 21.1283 149.186 21.3105C148.756 21.4863 148.388 21.7435 148.082 22.082C147.776 22.4206 147.535 22.8372 147.359 23.332C147.19 23.8203 147.105 24.377 147.105 25.002C147.105 25.7051 147.184 26.3594 147.34 26.9648C147.496 27.5703 147.724 28.0977 148.023 28.5469C148.329 28.9896 148.707 29.3379 149.156 29.5918C149.605 29.8392 150.123 29.9629 150.709 29.9629C151.015 29.9629 151.301 29.9271 151.568 29.8555C151.835 29.7839 152.079 29.6927 152.301 29.582C152.522 29.4714 152.717 29.3509 152.887 29.2207C153.056 29.084 153.196 28.9505 153.307 28.8203C153.32 28.5404 153.329 28.2214 153.336 27.8633C153.342 27.5052 153.346 27.1113 153.346 26.6816V23.0391ZM158.121 24.3184C158.121 23.765 158.111 23.2832 158.092 22.873C158.079 22.4564 158.059 22.0983 158.033 21.7988C158.014 21.4993 157.984 21.2487 157.945 21.0469C157.913 20.8451 157.877 20.6758 157.838 20.5391V20.5H160.094V20.5391C160.055 20.6758 160.019 20.8451 159.986 21.0469C159.954 21.2487 159.924 21.4993 159.898 21.7988C159.872 22.0983 159.853 22.4564 159.84 22.873C159.827 23.2832 159.82 23.765 159.82 24.3184V26.6816C159.82 27.235 159.827 27.7201 159.84 28.1367C159.853 28.5469 159.872 28.9017 159.898 29.2012C159.924 29.5007 159.954 29.7513 159.986 29.9531C160.019 30.1549 160.055 30.3242 160.094 30.4609V30.5H157.838V30.4609C157.877 30.3242 157.913 30.1549 157.945 29.9531C157.984 29.7513 158.014 29.5007 158.033 29.2012C158.059 28.9017 158.079 28.5469 158.092 28.1367C158.111 27.7201 158.121 27.235 158.121 26.6816V24.3184ZM157.916 17.541C157.916 17.3978 157.942 17.2643 157.994 17.1406C158.053 17.0104 158.128 16.8997 158.219 16.8086C158.31 16.7109 158.417 16.6361 158.541 16.584C158.671 16.5254 158.811 16.4961 158.961 16.4961C159.111 16.4961 159.247 16.5254 159.371 16.584C159.501 16.6361 159.612 16.7109 159.703 16.8086C159.801 16.8997 159.876 17.0104 159.928 17.1406C159.986 17.2643 160.016 17.3978 160.016 17.541C160.016 17.8405 159.915 18.0911 159.713 18.293C159.511 18.4948 159.26 18.5957 158.961 18.5957C158.811 18.5957 158.671 18.5697 158.541 18.5176C158.417 18.459 158.31 18.3841 158.219 18.293C158.128 18.1953 158.053 18.0846 157.994 17.9609C157.942 17.8307 157.916 17.6908 157.916 17.541ZM162.887 24.3184C162.887 23.765 162.877 23.2832 162.857 22.873C162.844 22.4564 162.825 22.0983 162.799 21.7988C162.779 21.4993 162.75 21.2487 162.711 21.0469C162.678 20.8451 162.643 20.6758 162.604 20.5391V20.5H164.859V20.5391C164.807 20.6888 164.762 20.8711 164.723 21.0859C164.69 21.3008 164.664 21.5775 164.645 21.916C164.885 21.7142 165.136 21.5156 165.396 21.3203C165.657 21.125 165.924 20.9525 166.197 20.8027C166.471 20.653 166.747 20.5326 167.027 20.4414C167.314 20.3503 167.6 20.3047 167.887 20.3047C168.062 20.3047 168.215 20.3145 168.346 20.334C168.476 20.347 168.593 20.3698 168.697 20.4023C168.801 20.4284 168.896 20.4609 168.98 20.5C169.065 20.5326 169.146 20.5651 169.225 20.5977L168.746 22.4629L168.58 22.4238C168.502 22.1374 168.355 21.9095 168.141 21.7402C167.926 21.5645 167.633 21.4766 167.262 21.4766C167.06 21.4766 166.848 21.5124 166.627 21.584C166.406 21.6556 166.181 21.7565 165.953 21.8867C165.725 22.0104 165.497 22.1569 165.27 22.3262C165.042 22.4889 164.82 22.6615 164.605 22.8438C164.592 23.0326 164.586 23.2376 164.586 23.459C164.586 23.6803 164.586 23.9147 164.586 24.1621V26.6816C164.586 27.235 164.592 27.7201 164.605 28.1367C164.618 28.5469 164.638 28.9017 164.664 29.2012C164.69 29.5007 164.719 29.7513 164.752 29.9531C164.785 30.1549 164.82 30.3242 164.859 30.4609V30.5H162.604V30.4609C162.643 30.3242 162.678 30.1549 162.711 29.9531C162.75 29.7513 162.779 29.5007 162.799 29.2012C162.825 28.9017 162.844 28.5469 162.857 28.1367C162.877 27.7201 162.887 27.235 162.887 26.6816V24.3184ZM170.797 24.3184C170.797 23.765 170.787 23.2832 170.768 22.873C170.755 22.4564 170.735 22.0983 170.709 21.7988C170.689 21.4993 170.66 21.2487 170.621 21.0469C170.589 20.8451 170.553 20.6758 170.514 20.5391V20.5H172.77V20.5391C172.73 20.6758 172.695 20.8451 172.662 21.0469C172.63 21.2487 172.6 21.4993 172.574 21.7988C172.548 22.0983 172.529 22.4564 172.516 22.873C172.503 23.2832 172.496 23.765 172.496 24.3184V26.6816C172.496 27.235 172.503 27.7201 172.516 28.1367C172.529 28.5469 172.548 28.9017 172.574 29.2012C172.6 29.5007 172.63 29.7513 172.662 29.9531C172.695 30.1549 172.73 30.3242 172.77 30.4609V30.5H170.514V30.4609C170.553 30.3242 170.589 30.1549 170.621 29.9531C170.66 29.7513 170.689 29.5007 170.709 29.2012C170.735 28.9017 170.755 28.5469 170.768 28.1367C170.787 27.7201 170.797 27.235 170.797 26.6816V24.3184ZM170.592 17.541C170.592 17.3978 170.618 17.2643 170.67 17.1406C170.729 17.0104 170.803 16.8997 170.895 16.8086C170.986 16.7109 171.093 16.6361 171.217 16.584C171.347 16.5254 171.487 16.4961 171.637 16.4961C171.786 16.4961 171.923 16.5254 172.047 16.584C172.177 16.6361 172.288 16.7109 172.379 16.8086C172.477 16.8997 172.551 17.0104 172.604 17.1406C172.662 17.2643 172.691 17.3978 172.691 17.541C172.691 17.8405 172.59 18.0911 172.389 18.293C172.187 18.4948 171.936 18.5957 171.637 18.5957C171.487 18.5957 171.347 18.5697 171.217 18.5176C171.093 18.459 170.986 18.3841 170.895 18.293C170.803 18.1953 170.729 18.0846 170.67 17.9609C170.618 17.8307 170.592 17.6908 170.592 17.541Z" fill="black"/>
</svg>
